<svg xmlns="http://www.w3.org/2000/svg" xmlns:xlink="http://www.w3.org/1999/xlink" width="500" zoomAndPan="magnify" viewBox="0 0 375 374.999991" height="500" preserveAspectRatio="xMidYMid meet" version="1.0"><defs><g/><clipPath id="96eefd1ae2"><path d="M 101.167969 91.675781 L 286.8125 91.675781 L 286.8125 277.324219 L 101.167969 277.324219 Z M 101.167969 91.675781 " clip-rule="nonzero"/></clipPath><clipPath id="ee597fae5b"><path d="M 193.992188 91.675781 C 142.726562 91.675781 101.167969 133.234375 101.167969 184.5 C 101.167969 235.765625 142.726562 277.324219 193.992188 277.324219 C 245.257812 277.324219 286.8125 235.765625 286.8125 184.5 C 286.8125 133.234375 245.257812 91.675781 193.992188 91.675781 Z M 193.992188 91.675781 " clip-rule="nonzero"/></clipPath><clipPath id="ec6cc95895"><path d="M 107.800781 187.5 L 143.050781 187.5 L 143.050781 222.75 L 107.800781 222.75 Z M 107.800781 187.5 " clip-rule="nonzero"/></clipPath><clipPath id="927ceb1b11"><path d="M 168.386719 242.5625 L 193.136719 242.5625 L 193.136719 267.3125 L 168.386719 267.3125 Z M 168.386719 242.5625 " clip-rule="nonzero"/></clipPath><clipPath id="8913c305f1"><path d="M 218.492188 233.421875 L 234.242188 233.421875 L 234.242188 249.171875 L 218.492188 249.171875 Z M 218.492188 233.421875 " clip-rule="nonzero"/></clipPath><clipPath id="1b5c346019"><path d="M 268.308594 168.773438 L 284.058594 168.773438 L 284.058594 184.523438 L 268.308594 184.523438 Z M 268.308594 168.773438 " clip-rule="nonzero"/></clipPath><clipPath id="b24c19c93a"><path d="M 159.554688 120.144531 L 175.304688 120.144531 L 175.304688 135.894531 L 159.554688 135.894531 Z M 159.554688 120.144531 " clip-rule="nonzero"/></clipPath><clipPath id="905ee76c41"><path d="M 186.128906 98.859375 L 207.128906 98.859375 L 207.128906 119.859375 L 186.128906 119.859375 Z M 186.128906 98.859375 " clip-rule="nonzero"/></clipPath><clipPath id="83007f7c1f"><path d="M 246.445312 144.453125 L 262.195312 144.453125 L 262.195312 160.203125 L 246.445312 160.203125 Z M 246.445312 144.453125 " clip-rule="nonzero"/></clipPath></defs><rect x="-37.5" width="450" fill="#ffffff" y="-37.499999" height="449.999989" fill-opacity="1"/><rect x="-37.5" width="450" fill="#ffffff" y="-37.499999" height="449.999989" fill-opacity="1"/><g clip-path="url(#96eefd1ae2)"><g clip-path="url(#ee597fae5b)"><path fill="#5d5048" d="M 101.167969 91.675781 L 286.8125 91.675781 L 286.8125 277.324219 L 101.167969 277.324219 Z M 101.167969 91.675781 " fill-opacity="1" fill-rule="nonzero"/></g></g><path stroke-linecap="butt" transform="matrix(0.800882, -0.0726318, 0.0726318, 0.800882, 119.131461, 194.772938)" fill="none" stroke-linejoin="miter" d="M 31.387243 30.44853 C 29.826473 30.44843 28.509258 30.075346 27.439998 29.334553 C 26.366339 28.588485 25.56749 27.608834 25.039052 26.390326 C 24.505777 25.171379 24.242947 23.874532 24.244849 22.509023 C 24.242651 20.489566 24.72641 18.489792 25.691291 16.509264 C 26.671123 14.525215 28.13651 12.726646 30.087891 11.10872 C 32.054222 9.487273 34.541763 8.195985 37.556226 7.22562 C 40.571128 6.250417 44.112549 5.761933 48.190166 5.761046 C 50.243487 5.761919 52.015358 5.800673 53.50622 5.872473 C 54.996642 5.949109 56.365246 6.024453 57.621706 6.099382 C 58.878606 6.169473 60.153089 6.207016 61.445595 6.207175 C 63.503753 6.208486 65.093087 6.108751 66.218873 5.90357 C 67.345536 5.688713 68.272124 5.582525 68.994238 5.579729 C 69.872034 5.581297 70.463578 5.781267 70.768871 6.179639 C 71.073724 6.582849 71.230851 7.162881 71.230137 7.923696 C 71.230013 9.377161 70.875852 10.754621 70.167654 12.056076 C 69.460333 13.347857 68.409493 14.393876 67.015132 15.194135 C 65.630448 15.995271 63.906607 16.394964 61.853286 16.394091 C 60.472825 16.395711 59.277037 16.243368 58.265922 15.937063 C 57.260083 15.626359 56.271829 15.283108 55.291921 14.901595 C 54.326527 14.521397 53.230528 14.183007 52.014038 13.882464 C 50.79315 13.576644 49.289957 13.425688 47.504901 13.424757 C 45.256319 13.425686 43.320049 13.747585 41.700051 14.400567 C 40.08093 15.043874 38.84358 15.887636 37.987123 16.941529 C 37.131982 17.980909 36.702565 19.11255 36.70415 20.332053 C 36.703436 21.092868 36.91335 21.736217 37.33433 22.257261 C 37.75135 22.768192 38.264626 23.02447 38.869321 23.025658 C 39.136397 23.630294 39.157666 24.363838 38.923013 25.230251 C 38.698913 26.087866 38.254037 26.905948 37.583545 27.684061 C 36.913493 28.457335 36.053871 29.115869 35.000282 29.654386 C 33.962082 30.184544 32.752752 30.450432 31.387243 30.44853 Z M 29.669411 52.402155 C 27.035584 52.402288 24.903001 51.930871 23.266384 50.992302 C 21.62933 50.058571 20.435952 48.857798 19.692406 47.37591 C 18.949298 45.889184 18.575595 44.362798 18.576134 42.79719 C 18.576234 41.23642 18.892109 39.743307 19.523759 38.317851 C 20.151011 36.887118 21.032071 35.723275 22.176178 34.832037 C 23.321602 33.926286 24.654909 33.476544 26.181377 33.47841 C 26.752208 33.476527 27.033715 33.706909 27.031615 34.16032 C 27.03365 35.428638 27.526423 36.448814 28.513893 37.230964 C 29.506202 38.013552 30.831775 38.402026 32.475224 38.404747 C 33.655587 38.404491 34.939664 38.067342 36.327016 37.398138 C 37.724043 36.729812 39.067775 35.681091 40.36261 34.257249 C 41.653046 32.828132 42.755159 30.947843 43.66851 28.621222 C 44.171334 27.325528 44.678106 25.986295 45.188826 24.603524 C 45.700863 23.20624 46.204564 21.900871 46.69553 20.682141 C 47.078799 19.682883 47.586588 18.977809 48.219776 18.557244 C 48.847688 18.141078 49.583829 17.929825 50.422485 17.932721 C 51.67629 17.929369 52.504452 18.209327 52.90741 18.767757 C 53.306407 19.316073 53.350548 20.066324 53.045109 21.01411 C 52.098485 24.03031 51.163694 26.86224 50.240299 29.514739 C 49.327895 32.153602 48.337638 34.736631 47.269968 37.258987 C 45.102553 42.442235 42.517492 46.260946 39.524461 48.715995 C 36.536268 51.171483 33.254476 52.400495 29.669411 52.402155 Z M 101.513242 34.340256 C 101.822746 33.885459 102.222908 33.721775 102.713289 33.854041 C 103.208507 33.986746 103.614916 34.23821 103.941314 34.618986 C 104.267273 35.0046 104.320569 35.384996 104.095925 35.764573 C 103.713452 36.378586 103.252319 37.268356 102.712965 38.429046 C 102.183725 39.585775 101.544997 40.82037 100.800741 42.142942 C 100.057363 43.45584 99.187317 44.713353 98.191042 45.910644 C 97.204442 47.108812 96.095977 48.091076 94.855971 48.856559 C 93.621241 49.617643 92.221073 49.997915 90.655026 50.002214 C 89.328657 49.998984 88.246282 49.617933 87.418015 48.855099 C 86.599423 48.093143 86.009897 47.064192 85.648999 45.773084 C 85.293377 44.477577 85.115397 43.051857 85.115936 41.486249 C 85.118416 40.759736 85.153432 39.997154 85.23066 39.199381 C 85.303488 38.396332 85.413251 37.56249 85.565664 36.688619 C 84.344383 36.602249 83.155199 36.484647 81.992836 36.340213 C 80.826074 36.190503 79.698879 35.980974 78.601575 35.71075 C 78.253405 36.322996 77.909194 36.945356 77.568944 37.57783 C 77.224295 38.205027 76.880962 38.817712 76.533669 39.420283 C 75.241653 41.673544 73.742473 43.790959 72.040965 45.772966 C 70.349572 47.751013 68.536278 49.352197 66.611198 50.572559 C 64.696232 51.78896 62.70945 52.398924 60.65569 52.402889 C 58.056165 52.401256 55.952608 51.932471 54.330944 50.990381 C 52.713239 50.058404 51.529976 48.853672 50.785991 47.376621 C 50.042883 45.889895 49.66918 44.363509 49.669719 42.797901 C 49.669819 41.237131 49.985694 39.744018 50.622182 38.319 C 51.244596 36.887829 52.125656 35.723986 53.269763 34.832748 C 54.415187 33.926997 55.748494 33.477255 57.274962 33.479122 C 57.845793 33.477238 58.127739 33.702783 58.130038 34.16147 C 58.127674 35.424511 58.673661 36.449514 59.758762 37.230762 C 60.8487 38.01245 62.174274 38.400924 63.739882 38.401463 C 65.524939 38.402394 67.169172 37.966217 68.677418 37.09337 C 70.186981 36.206011 71.586975 35.020946 72.877838 33.533338 C 69.949038 32.053244 67.621317 30.130164 65.899075 27.769374 C 64.186946 25.404623 63.331012 22.79561 63.33127 19.942334 C 63.334787 17.91364 63.761881 16.216006 64.61783 14.845033 C 65.473339 13.478898 66.602021 12.435061 68.009151 11.709122 C 69.421118 10.983622 70.932114 10.618278 72.5417 10.617927 C 74.712002 10.619654 76.294883 11.182665 77.300019 12.307836 C 78.314831 13.433886 78.823041 14.660314 78.82421 15.99196 C 78.859483 16.409741 78.765005 16.752348 78.530663 17.023742 C 78.306874 17.286338 77.984541 17.398551 77.568503 17.360821 C 76.843734 17.285337 76.108008 17.384447 75.361764 17.653313 C 74.616397 17.912504 73.999939 18.417503 73.508429 19.158195 C 73.011643 19.903286 72.767362 20.983433 72.76591 22.397757 C 72.768307 25.329313 73.832202 27.688928 75.961556 29.486714 C 76.234565 29.057872 76.488223 28.627275 76.728245 28.185686 C 76.982342 27.750251 77.242153 27.305579 77.512957 26.847272 C 80.405556 21.627364 83.16252 17.580372 85.788686 14.706735 C 88.420566 11.823861 90.918946 9.82145 93.27811 8.70874 C 95.643428 7.581955 97.874736 7.018554 99.976872 7.018977 C 101.99633 7.016778 103.483336 7.561339 104.428215 8.651781 C 105.379248 9.72815 105.854495 11.049138 105.853956 12.614746 C 105.814774 14.445108 105.388973 16.020923 104.567754 17.331638 C 103.751372 18.642793 102.731231 19.296524 101.511728 19.298109 C 101.131321 19.297752 100.789152 19.198436 100.481263 18.990049 C 100.183487 18.777701 99.82549 18.691583 99.407709 18.726856 C 98.83204 18.7283 98.196671 19.226706 97.506875 20.217675 C 96.832032 21.205122 96.128753 22.882586 95.402315 25.245669 C 95.056466 26.423908 94.72251 27.686142 94.396047 29.027094 C 94.0709 30.353534 93.906689 31.572632 93.908689 32.679992 C 93.908507 33.865192 94.128605 34.826497 94.563706 35.568307 C 95.012882 36.316271 95.764542 36.68684 96.823086 36.68529 C 97.710557 36.687736 98.580837 36.50328 99.433047 36.141597 C 100.290095 35.780353 100.983493 35.179906 101.513242 34.340256 Z M 86.431177 32.792003 C 87.190093 30.124587 87.904709 27.999427 88.565349 26.415645 C 89.235666 24.83274 89.779396 23.570021 90.197417 22.617811 C 90.614999 21.67044 90.824147 20.816347 90.8253 20.050694 C 90.825183 19.514165 90.596001 19.244632 90.14259 19.242532 C 89.757345 19.241736 89.358938 19.386069 88.942531 19.675094 C 88.521287 19.963679 87.892984 20.599295 87.057182 21.586777 C 85.912325 23.077871 84.814114 24.70001 83.762109 26.458029 C 82.720657 28.20725 81.683616 30.015401 80.650546 31.887319 C 81.490138 32.148804 82.389086 32.347387 83.357066 32.483948 C 84.33516 32.616548 85.359864 32.719233 86.431177 32.792003 Z M 137.235183 28.912667 C 136.92913 29.060499 136.758104 29.279105 136.717268 29.568048 C 136.682147 29.847754 136.740245 30.06763 136.901677 30.223716 C 137.700006 30.832634 138.260886 31.585851 138.574204 32.487326 C 138.902912 33.380443 139.189397 34.255098 139.438498 35.11173 C 139.692874 35.963963 140.065964 36.690395 140.558204 37.286186 C 141.051322 37.872302 141.849142 38.164141 142.956062 38.166978 C 144.214705 38.164066 145.250746 37.819055 146.070338 37.117871 C 146.890369 36.41185 147.676491 35.488146 148.443653 34.343239 C 148.74832 33.888003 149.139684 33.713766 149.612469 33.824927 C 150.090091 33.936526 150.481549 34.191512 150.786402 34.594721 C 151.091694 34.993093 151.168301 35.385358 151.006986 35.765801 C 150.329661 37.479761 149.502809 39.175283 148.525989 40.857204 C 147.559284 42.535166 146.464132 44.069787 145.244933 45.466346 C 144.02705 46.848392 142.693006 47.951644 141.243238 48.771265 C 139.788632 49.590447 138.264012 49.998452 136.664102 49.99968 C 134.952049 50.000492 133.668247 49.581663 132.812698 48.743194 C 131.957148 47.904725 131.366734 46.831796 131.041892 45.519571 C 130.713091 44.197232 130.55139 42.80713 130.551952 41.348828 C 130.553831 39.876013 130.586952 38.488948 130.662308 37.173997 C 130.738102 35.854208 130.709281 34.773681 130.580245 33.937692 C 130.44637 33.101265 130.094018 32.683993 129.518788 32.6806 C 129.138381 32.680243 128.800219 32.805653 128.513979 33.057708 C 128.233454 33.300526 127.923546 33.921119 127.579856 34.914211 C 125.485666 41.118607 122.968473 45.587294 120.029153 48.310596 C 117.09907 51.039612 113.517379 52.402382 109.284081 52.398906 C 106.659929 52.399916 104.458741 51.932032 102.680956 50.990416 C 100.916806 50.059791 99.583125 48.792642 98.693987 47.195124 C 97.790336 45.59629 97.33654 43.823646 97.337436 41.877631 C 97.338425 40.360838 97.634084 38.929298 98.229689 37.578612 C 98.816057 36.222211 99.629402 35.105879 100.674562 34.230054 C 101.725438 33.344993 102.9554 32.905388 104.369724 32.90684 C 104.940555 32.904956 105.222502 33.130501 105.2248 33.589188 C 105.223349 35.003513 105.820818 36.159997 107.021607 37.063919 C 108.223274 37.958164 109.704541 38.404656 111.460572 38.402955 C 112.718776 38.40488 114.037155 38.065964 115.424507 37.396761 C 116.821535 36.728435 118.165705 35.674876 119.457457 34.231245 C 120.759762 32.778817 121.846485 30.906887 122.722024 28.620734 C 123.483735 26.675432 124.295127 24.666352 125.151363 22.593055 C 126.007598 20.519758 126.817674 18.525191 127.580713 16.61903 C 125.447229 16.049982 123.619083 16.093918 122.096716 16.745999 C 120.570388 17.387967 119.416178 18.336818 118.634088 19.592552 C 117.851997 20.848287 117.459562 22.163747 117.46162 23.53937 C 117.463562 24.378465 117.669088 25.07019 118.087436 25.620261 C 118.505784 26.170332 119.022582 26.441562 119.636951 26.443627 C 119.898313 27.057499 119.914744 27.790605 119.680969 28.647342 C 119.456869 29.504957 119.011992 30.32304 118.341062 31.10599 C 117.680246 31.884979 116.825023 32.54879 115.771434 33.087306 C 114.728397 33.617025 113.519067 33.882914 112.143882 33.880135 C 110.583112 33.880035 109.264142 33.526301 108.196649 32.819811 C 107.133993 32.113759 106.333839 31.202275 105.796188 30.085357 C 105.264252 28.959203 104.998802 27.745035 104.999839 26.442854 C 105.000156 23.857842 105.493059 21.434561 106.478548 19.173011 C 107.474589 16.902663 108.872203 14.88334 110.681062 13.115921 C 112.495637 11.339265 114.66432 9.960531 117.197662 8.97092 C 119.736281 7.976911 122.551629 7.481109 125.639305 7.478238 C 128.497419 7.478936 130.626031 7.886586 132.029539 8.706465 C 133.442723 9.527222 134.245567 10.677945 134.432357 12.167871 C 134.624861 13.648559 134.342908 15.413008 133.580782 17.470453 C 133.349177 18.195696 133.049002 19.085431 132.685535 20.135259 C 132.33262 21.176289 131.948936 22.28769 131.529207 23.473861 C 131.530096 23.517839 131.51735 23.550825 131.501082 23.568859 C 131.479976 23.586455 131.472506 23.615042 131.473834 23.654182 C 131.201346 24.453757 131.17201 25.046143 131.376589 25.425627 C 131.590843 25.805988 131.885536 25.998546 132.265944 25.998903 C 133.21851 26.036517 134.182331 25.250864 135.171043 23.652938 C 136.165031 22.050612 137.215199 19.936374 138.321986 17.305384 C 139.05122 15.664416 139.821811 14.105237 140.639912 12.613774 C 141.457575 11.127148 142.461759 9.896432 143.641911 8.930424 C 144.822064 7.964416 146.304888 7.479459 148.094782 7.480829 C 149.543409 7.480513 150.696132 7.785028 151.552512 8.399211 C 152.40977 9.003719 153.026947 9.781551 153.40932 10.728308 C 153.791254 11.679904 153.979693 12.667603 153.983436 13.701958 C 153.979768 15.033166 153.72453 16.287906 153.212447 17.470579 C 152.700364 18.653252 152.04838 19.603753 151.245945 20.33088 C 150.448347 21.058445 149.605812 21.421005 148.723178 21.418998 C 148.040204 21.420466 147.537943 21.257858 147.211557 20.930734 C 146.890009 20.60405 146.36312 20.444085 145.636608 20.441605 C 144.724509 20.441803 143.917593 20.788084 143.206622 21.474731 C 142.500489 22.161817 141.84936 22.995337 141.253235 23.975291 C 140.668101 24.941609 140.050421 25.890343 139.400192 26.821494 C 138.754802 27.753083 138.038116 28.448967 137.235183 28.912667 Z M 197.252352 34.340975 C 197.557019 33.885739 197.957181 33.722055 198.452399 33.85476 C 198.943219 33.982189 199.354027 34.238929 199.680424 34.619706 C 200.006383 35.005319 200.054842 35.385277 199.835036 35.765292 C 199.452563 36.379305 198.99143 37.269075 198.452075 38.429765 C 197.922835 39.586495 197.284107 40.821089 196.539852 42.143662 C 195.796474 43.456559 194.926866 44.709234 193.930152 45.911363 C 192.943552 47.109531 191.83025 48.091357 190.595081 48.857278 C 189.355514 49.617923 187.955346 49.998195 186.394575 49.998095 C 185.06293 49.999264 183.985392 49.618652 183.157125 48.855818 C 182.338533 48.093862 181.749008 47.064911 181.383272 45.773364 C 181.032487 44.478296 180.854507 43.052576 180.855046 41.486968 C 180.852689 40.760017 180.892543 39.997874 180.964933 39.199662 C 181.037761 38.396612 181.152361 37.563209 181.299936 36.688899 C 180.083493 36.602968 178.889472 36.484927 177.727547 36.335656 C 176.565184 36.191222 175.433151 35.981255 174.335848 35.71103 C 173.992515 36.323715 173.648305 36.946075 173.303217 37.57811 C 172.958568 38.205308 172.615235 38.817992 172.272779 39.421002 C 170.975926 41.673824 169.481583 43.791678 167.775238 45.773246 C 166.083845 47.751293 164.275389 49.352917 162.350308 50.573278 C 160.430505 51.789241 158.448561 52.399643 156.390402 52.398332 C 153.795276 52.401975 151.686881 51.932751 150.070054 50.9911 C 148.45235 50.059124 147.269086 48.854391 146.525101 47.37734 C 145.782432 45.885777 145.408291 44.364228 145.408829 42.79862 C 145.40893 41.23785 145.724805 39.744737 146.356455 38.319281 C 146.978868 36.88811 147.864767 35.724706 149.009312 34.82863 C 150.154297 33.927717 151.487604 33.477974 153.014511 33.475003 C 153.580065 33.477519 153.866849 33.703502 153.86431 34.161751 C 153.866784 35.425231 154.407933 36.449794 155.497872 37.231481 C 156.587811 38.013169 157.913384 38.401643 159.474154 38.401744 C 161.259211 38.402675 162.908282 37.966936 164.416529 37.09409 C 165.921254 36.206291 167.321247 35.021226 168.616948 33.534057 C 165.68331 32.053525 163.360427 30.130883 161.638185 27.770093 C 159.926057 25.405342 159.070122 22.796329 159.070381 19.943053 C 159.06906 17.91392 159.496154 16.216286 160.352102 14.845314 C 161.207612 13.479179 162.34157 12.430942 163.743424 11.709402 C 165.160667 10.979503 166.671225 10.618997 168.28081 10.618647 C 170.446274 10.619935 172.033994 11.183384 173.03913 12.308556 C 174.053941 13.434605 174.562151 14.661034 174.558483 15.992241 C 174.598594 16.41046 174.499278 16.752629 174.264936 17.024022 C 174.041146 17.286618 173.72409 17.394433 173.302776 17.361101 C 172.578007 17.285617 171.842719 17.37989 171.100874 17.654032 C 170.355508 17.913223 169.734651 18.412946 169.242702 19.158476 C 168.750753 19.904005 168.501634 20.983713 168.505021 22.398476 C 168.50258 25.329594 169.566475 27.689208 171.700667 29.487433 C 171.968837 29.058152 172.222495 28.627555 172.467355 28.186405 C 172.716614 27.750531 172.976426 27.30586 173.247229 26.847553 C 176.139829 21.627645 178.901631 17.581091 181.522959 14.707015 C 184.154839 11.824141 186.653219 9.821731 189.017659 8.704621 C 191.382538 7.582674 193.613846 7.019274 195.715983 7.019696 C 197.73544 7.017497 199.217609 7.561619 200.167325 8.652501 C 201.118358 9.728869 201.588768 11.049418 201.593067 12.615465 C 201.553885 14.445827 201.123246 16.021203 200.306864 17.332358 C 199.490483 18.643512 198.470341 19.297243 197.250839 19.298828 C 196.870431 19.298471 196.523425 19.198717 196.220373 18.990768 C 195.922598 18.77842 195.560201 18.687025 195.141982 18.727136 C 194.566313 18.728581 193.93622 19.222588 193.245986 20.218394 C 192.566305 21.205403 191.863026 22.882867 191.136588 25.245949 C 190.795577 26.424627 190.461621 27.686861 190.135158 29.027813 C 189.810011 30.354253 189.645799 31.573352 189.647799 32.680711 C 189.64278 33.865472 189.862878 34.826778 190.302817 35.569026 C 190.747155 36.316551 191.503652 36.687559 192.562196 36.686009 C 193.44483 36.688016 194.31511 36.50356 195.172157 36.142316 C 196.029205 35.781073 196.722603 35.180626 197.252352 34.340975 Z M 182.16545 32.792283 C 182.929203 30.125306 183.638981 27.999708 184.299622 26.415925 C 184.969938 24.83302 185.513668 23.570301 185.93169 22.618092 C 186.35411 21.671159 186.563258 20.817066 186.559573 20.050974 C 186.559456 19.514446 186.335111 19.245351 185.876863 19.242812 C 185.496455 19.242455 185.098048 19.386789 184.676804 19.675374 C 184.260398 19.964399 183.632094 20.600014 182.791454 21.587057 C 181.646598 23.078152 180.553225 24.700729 179.50122 26.458748 C 178.459768 28.20797 177.422726 30.01612 176.389656 31.888038 C 177.224411 32.149084 178.128197 32.348107 179.096176 32.484667 C 180.07427 32.617267 181.094137 32.719513 182.16545 32.792283 Z M 203.540262 52.401707 C 201.213839 52.400454 199.315217 51.930745 197.849235 50.993018 C 196.387652 50.060568 195.321369 48.85669 194.650827 47.376545 C 193.981161 45.886724 193.646159 44.363848 193.646698 42.79824 C 193.646798 41.23747 193.962673 39.744357 194.594323 38.318901 C 195.221575 36.888168 196.102635 35.724325 197.246742 34.833087 C 198.392166 33.927336 199.725473 33.477594 201.251941 33.47946 C 201.817934 33.477138 202.104718 33.703122 202.102179 34.16137 C 202.104653 35.42485 202.645802 36.449414 203.735741 37.231101 C 204.825679 38.012788 206.151253 38.401263 207.712023 38.401363 C 209.501918 38.402733 211.401148 37.628751 213.423789 36.085572 C 215.441591 34.541954 217.12056 32.055527 218.461135 28.621453 C 218.953844 27.329719 219.455778 25.990048 219.966938 24.602439 C 220.48865 23.206032 220.992351 21.900663 221.488154 20.682372 C 221.871423 19.683114 222.369537 18.977163 222.992611 18.560558 C 223.625799 18.139993 224.361502 17.933577 225.200597 17.931635 C 226.420099 17.930051 227.189771 18.209582 227.514449 18.770667 C 227.840443 19.31724 227.909211 20.064846 227.710638 21.017447 C 227.524813 21.937063 227.163562 23.070008 226.62161 24.420682 C 226.09461 25.767835 225.522767 27.179205 224.906519 28.649955 C 224.300385 30.116745 223.779112 31.508314 223.343138 32.819825 C 222.907164 34.131337 222.685316 35.233027 222.688147 36.1161 C 222.686544 36.832938 222.908765 37.448138 223.344258 37.970499 C 223.780629 38.483184 224.479491 38.736784 225.435128 38.740534 C 226.69377 38.737621 227.8349 38.30947 228.853678 37.45564 C 229.887409 36.598289 230.794863 35.466104 231.575603 34.063924 C 232.357658 32.647231 232.957615 31.087209 233.37635 29.374185 C 233.795963 27.651486 234.003608 25.95346 234.004124 24.280546 C 234.006406 22.641935 233.70835 21.141919 233.110834 19.770823 C 232.52827 18.396205 231.498068 17.278515 230.029465 16.423468 C 228.566577 15.559183 226.518439 15.124689 223.88945 15.125261 C 222.094279 15.12829 220.374814 15.425954 218.74073 16.019129 C 217.102247 16.607029 215.766401 17.51502 214.733629 18.738266 C 213.710972 19.957551 213.19986 21.559772 213.20073 23.540089 C 213.197835 24.378746 213.408199 25.07091 213.826547 25.62098 C 214.244895 26.171051 214.761692 26.442281 215.376062 26.444346 C 215.79606 26.49219 215.895977 26.896324 215.680652 27.657186 C 215.475879 28.40925 215.021777 29.275271 214.313509 30.254809 C 213.606557 31.219835 212.70036 32.069242 211.595797 32.793356 C 210.496071 33.517909 209.258177 33.883633 207.882993 33.880854 C 206.317385 33.880315 205.001486 33.492718 203.931337 32.707948 C 202.870424 31.928893 202.071125 30.900427 201.533 29.627389 C 201.000152 28.349951 200.738188 26.989776 200.738312 25.536312 C 200.735142 23.097307 201.280406 20.795833 202.369702 18.626614 C 203.459437 16.452557 204.994722 14.528636 206.975994 12.850014 C 208.957704 11.166555 211.30583 9.852868 214.02081 8.904118 C 216.745903 7.951406 219.754318 7.477991 223.036816 7.478157 C 226.694885 7.47824 229.767715 7.961767 232.260145 8.929175 C 234.752574 9.896582 236.752973 11.23395 238.26178 12.93644 C 239.766627 14.628816 240.853739 16.571077 241.513004 18.767182 C 242.182821 20.954489 242.519314 23.267645 242.517646 25.706211 C 242.519189 28.754748 242.061155 31.761606 241.14926 34.717549 C 240.237804 37.668654 238.991175 40.335736 237.409813 42.713956 C 235.828012 45.097015 234.006429 47.004726 231.940227 48.436651 C 229.884577 49.859778 227.717948 50.57049 225.435064 50.573186 C 223.074339 50.573699 221.202491 49.862547 219.824798 48.435329 C 218.457218 47.004151 217.697749 45.106237 217.536277 42.745546 C 215.935693 45.712194 213.936977 48.067197 211.53573 49.80528 C 209.135361 51.533688 206.471818 52.39931 203.540262 52.401707 Z M 292.586428 34.343981 C 292.896371 33.884346 293.296095 33.7255 293.786914 33.852928 C 294.282132 33.985633 294.688103 34.241935 295.0145 34.622712 C 295.340898 35.003488 295.394194 35.383884 295.16955 35.763461 C 294.787077 36.377473 294.325944 37.267243 293.786151 38.432771 C 293.25735 39.584663 292.618183 40.824095 291.874366 42.14183 C 291.130988 43.454727 290.260942 44.712241 289.264667 45.909531 C 288.282466 47.112976 287.169163 48.094802 285.929596 48.855447 C 284.694866 49.61653 283.294259 50.00164 281.728651 50.001101 C 280.402282 49.997872 279.319907 49.61682 278.49164 48.853986 C 277.673048 48.09203 277.083522 47.063079 276.722624 45.771971 C 276.367002 44.476464 276.189022 43.050745 276.189561 41.485137 C 276.191602 40.763461 276.226619 40.00088 276.304285 39.198269 C 276.376674 38.400057 276.486876 37.561378 276.639289 36.687507 C 275.418008 36.601136 274.228385 36.488372 273.066461 36.339101 C 271.899699 36.18939 270.772504 35.979862 269.6752 35.709637 C 269.32703 36.321883 268.987218 36.94952 268.64213 37.581555 C 268.29792 38.203915 267.954587 38.8166 267.606855 39.424008 C 266.315278 41.672431 264.816098 43.789846 263.11459 45.771854 C 261.422758 47.754738 259.609903 49.351085 257.684823 50.571447 C 255.769418 51.792685 253.782636 52.402649 251.729315 52.401777 C 249.12979 52.400143 247.026233 51.931359 245.404569 50.989268 C 243.786426 50.06213 242.603162 48.857397 241.859616 47.375509 C 241.116508 45.888783 240.742805 44.362397 240.743344 42.796789 C 240.743444 41.236019 241.059319 39.742906 241.695807 38.317888 C 242.318221 36.886717 243.199281 35.722874 244.343388 34.831636 C 245.488373 33.930723 246.822119 33.476142 248.348587 33.478009 C 248.919418 33.476126 249.200925 33.706508 249.203663 34.160358 C 249.20086 35.428237 249.747286 36.448402 250.832387 37.22965 C 251.922325 38.011337 253.24746 38.40465 254.813068 38.405189 C 256.598564 38.401282 258.242797 37.965105 259.751043 37.092258 C 261.260167 36.209736 262.6606 35.019833 263.951463 33.532225 C 261.022663 32.052132 258.694503 30.133889 256.9727 27.768261 C 255.260133 25.408348 254.404637 22.794497 254.404895 19.941221 C 254.408412 17.912527 254.835506 16.214893 255.691016 14.848758 C 256.546964 13.477786 257.675646 12.433948 259.082776 11.70801 C 260.494743 10.982509 262.005739 10.617165 263.615325 10.616815 C 265.785627 10.618542 267.368508 11.181552 268.373644 12.306724 C 269.388456 13.432773 269.896666 14.659202 269.897835 15.990848 C 269.933108 16.408629 269.838192 16.756074 269.604288 17.02263 C 269.380499 17.285225 269.058166 17.397439 268.642128 17.359709 C 267.917359 17.284224 267.181633 17.383334 266.435389 17.652201 C 265.690022 17.911392 265.073564 18.416391 264.582054 19.157083 C 264.085268 19.902174 263.840987 20.98232 263.839535 22.396645 C 263.841932 25.328201 264.905389 27.692653 267.035181 29.485602 C 267.30819 29.056759 267.561848 28.626162 267.801431 28.189411 C 268.055967 27.749138 268.315778 27.304467 268.586143 26.850998 C 271.478743 21.631089 274.235707 17.584097 276.862311 14.705622 C 279.494191 11.822748 281.992132 9.825175 284.351735 8.707627 C 286.717053 7.580843 288.948361 7.017442 291.050497 7.017864 C 293.069516 7.020503 294.556522 7.565064 295.506678 8.651108 C 296.452434 9.731875 296.927681 11.052863 296.927581 12.613633 C 296.887961 14.448833 296.462598 16.019811 295.646217 17.330965 C 294.824997 18.64168 293.804417 19.300249 292.590191 19.297435 C 292.204946 19.296639 291.862777 19.197324 291.554449 18.993774 C 291.257112 18.776589 290.899115 18.69047 290.481334 18.725743 C 289.905665 18.727188 289.270296 19.225594 288.580062 20.2214 C 287.905657 21.20401 287.202378 22.881474 286.47594 25.244556 C 286.130091 26.422795 285.796135 27.685029 285.469672 29.025982 C 285.144087 30.357259 284.979875 31.576358 284.981875 32.683717 C 284.982132 33.864079 285.20223 34.825385 285.636893 35.572033 C 286.086507 36.315159 286.838167 36.685727 287.896272 36.689015 C 288.784182 36.686623 289.654023 36.507005 290.506672 36.140485 C 291.36372 35.779241 292.057118 35.178794 292.586428 34.343981 Z M 277.504364 32.795728 C 278.263718 30.123475 278.978334 27.998315 279.638974 26.414532 C 280.308852 24.836465 280.853021 23.568908 281.270603 22.621537 C 281.688624 21.669328 281.897772 20.815234 281.898487 20.054419 C 281.898809 19.513053 281.669626 19.243519 281.216215 19.241419 C 280.83097 19.240623 280.432563 19.384957 280.016156 19.673981 C 279.594912 19.962567 278.96617 20.60302 278.130807 21.585664 C 276.98595 23.076759 275.887739 24.698897 274.835734 26.456917 C 273.794282 28.206138 272.757241 30.014289 271.724171 31.886206 C 272.563763 32.147691 273.462711 32.346275 274.430252 32.487673 C 275.408785 32.615435 276.433489 32.71812 277.504364 32.795728 Z M 277.504364 32.795728 " stroke="#5d5048" stroke-width="4.287427" stroke-opacity="1" stroke-miterlimit="4"/><g fill="#fdf8eb" fill-opacity="1"><g transform="translate(139.931957, 233.259993)"><g><path d="M 6.546875 -16.375 C 5.285156 -16.257812 4.203125 -16.460938 3.296875 -16.984375 C 2.398438 -17.503906 1.691406 -18.234375 1.171875 -19.171875 C 0.648438 -20.109375 0.335938 -21.125 0.234375 -22.21875 C 0.0859375 -23.84375 0.332031 -25.484375 0.96875 -27.140625 C 1.601562 -28.796875 2.648438 -30.34375 4.109375 -31.78125 C 5.566406 -33.21875 7.460938 -34.4375 9.796875 -35.4375 C 12.140625 -36.4375 14.941406 -37.082031 18.203125 -37.375 C 19.859375 -37.53125 21.28125 -37.628906 22.46875 -37.671875 C 23.664062 -37.710938 24.769531 -37.75 25.78125 -37.78125 C 26.789062 -37.820312 27.816406 -37.890625 28.859375 -37.984375 C 30.503906 -38.128906 31.769531 -38.328125 32.65625 -38.578125 C 33.550781 -38.828125 34.289062 -38.976562 34.875 -39.03125 C 35.570312 -39.09375 36.054688 -38.972656 36.328125 -38.671875 C 36.597656 -38.367188 36.757812 -37.910156 36.8125 -37.296875 C 36.914062 -36.148438 36.734375 -35.03125 36.265625 -33.9375 C 35.804688 -32.84375 35.046875 -31.925781 33.984375 -31.1875 C 32.929688 -30.445312 31.578125 -30.003906 29.921875 -29.859375 C 28.828125 -29.753906 27.863281 -29.785156 27.03125 -29.953125 C 26.207031 -30.128906 25.390625 -30.332031 24.578125 -30.5625 C 23.765625 -30.800781 22.859375 -31 21.859375 -31.15625 C 20.867188 -31.3125 19.660156 -31.320312 18.234375 -31.1875 C 16.421875 -31.019531 14.890625 -30.617188 13.640625 -29.984375 C 12.390625 -29.359375 11.460938 -28.59375 10.859375 -27.6875 C 10.253906 -26.78125 9.992188 -25.84375 10.078125 -24.875 C 10.128906 -24.257812 10.34375 -23.757812 10.71875 -23.375 C 11.09375 -23 11.519531 -22.832031 12 -22.875 C 12.257812 -22.414062 12.328125 -21.832031 12.203125 -21.125 C 12.085938 -20.414062 11.789062 -19.722656 11.3125 -19.046875 C 10.84375 -18.378906 10.203125 -17.789062 9.390625 -17.28125 C 8.585938 -16.78125 7.640625 -16.476562 6.546875 -16.375 Z M 6.765625 1.328125 C 4.660156 1.515625 2.914062 1.289062 1.53125 0.65625 C 0.15625 0.03125 -0.878906 -0.847656 -1.578125 -1.984375 C -2.285156 -3.117188 -2.695312 -4.3125 -2.8125 -5.5625 C -2.914062 -6.8125 -2.769531 -8.03125 -2.375 -9.21875 C -1.976562 -10.40625 -1.351562 -11.398438 -0.5 -12.203125 C 0.34375 -13.003906 1.375 -13.460938 2.59375 -13.578125 C 3.050781 -13.617188 3.296875 -13.457031 3.328125 -13.09375 C 3.421875 -12.082031 3.890625 -11.300781 4.734375 -10.75 C 5.585938 -10.195312 6.675781 -9.976562 8 -10.09375 C 8.9375 -10.1875 9.9375 -10.546875 11 -11.171875 C 12.070312 -11.804688 13.078125 -12.742188 14.015625 -13.984375 C 14.953125 -15.222656 15.695312 -16.804688 16.25 -18.734375 C 16.5625 -19.804688 16.867188 -20.914062 17.171875 -22.0625 C 17.484375 -23.21875 17.796875 -24.300781 18.109375 -25.3125 C 18.347656 -26.144531 18.703125 -26.75 19.171875 -27.125 C 19.640625 -27.5 20.210938 -27.71875 20.890625 -27.78125 C 21.898438 -27.875 22.582031 -27.710938 22.9375 -27.296875 C 23.289062 -26.890625 23.378906 -26.296875 23.203125 -25.515625 C 22.660156 -23.023438 22.117188 -20.6875 21.578125 -18.5 C 21.035156 -16.320312 20.4375 -14.179688 19.78125 -12.078125 C 18.40625 -7.773438 16.609375 -4.53125 14.390625 -2.34375 C 12.171875 -0.15625 9.628906 1.066406 6.765625 1.328125 Z M 6.765625 1.328125 "/></g></g></g><g fill="#fdf8eb" fill-opacity="1"><g transform="translate(163.918309, 231.084678)"><g><path d="M 39 -16.1875 C 39.21875 -16.570312 39.53125 -16.726562 39.9375 -16.65625 C 40.34375 -16.59375 40.6875 -16.421875 40.96875 -16.140625 C 41.257812 -15.859375 41.332031 -15.554688 41.1875 -15.234375 C 40.914062 -14.703125 40.609375 -13.953125 40.265625 -12.984375 C 39.921875 -12.023438 39.5 -10.992188 39 -9.890625 C 38.507812 -8.785156 37.90625 -7.71875 37.1875 -6.6875 C 36.476562 -5.65625 35.65625 -4.785156 34.71875 -4.078125 C 33.789062 -3.367188 32.703125 -2.960938 31.453125 -2.859375 C 30.378906 -2.753906 29.488281 -2.976562 28.78125 -3.53125 C 28.070312 -4.09375 27.523438 -4.878906 27.140625 -5.890625 C 26.753906 -6.898438 26.503906 -8.023438 26.390625 -9.265625 C 26.335938 -9.847656 26.3125 -10.460938 26.3125 -11.109375 C 26.320312 -11.753906 26.351562 -12.429688 26.40625 -13.140625 C 25.425781 -13.109375 24.460938 -13.113281 23.515625 -13.15625 C 22.578125 -13.195312 21.65625 -13.285156 20.75 -13.421875 C 20.519531 -12.898438 20.289062 -12.375 20.0625 -11.84375 C 19.84375 -11.320312 19.613281 -10.804688 19.375 -10.296875 C 18.488281 -8.398438 17.441406 -6.597656 16.234375 -4.890625 C 15.023438 -3.179688 13.691406 -1.765625 12.234375 -0.640625 C 10.773438 0.472656 9.226562 1.101562 7.59375 1.25 C 5.519531 1.4375 3.796875 1.210938 2.421875 0.578125 C 1.054688 -0.046875 0.0234375 -0.925781 -0.671875 -2.0625 C -1.378906 -3.195312 -1.789062 -4.390625 -1.90625 -5.640625 C -2.007812 -6.890625 -1.859375 -8.109375 -1.453125 -9.296875 C -1.054688 -10.492188 -0.4375 -11.492188 0.40625 -12.296875 C 1.25 -13.097656 2.285156 -13.550781 3.515625 -13.65625 C 3.972656 -13.695312 4.21875 -13.535156 4.25 -13.171875 C 4.34375 -12.160156 4.851562 -11.382812 5.78125 -10.84375 C 6.707031 -10.300781 7.789062 -10.082031 9.03125 -10.1875 C 10.476562 -10.320312 11.769531 -10.796875 12.90625 -11.609375 C 14.050781 -12.421875 15.085938 -13.46875 16.015625 -14.75 C 13.554688 -15.71875 11.550781 -17.085938 10 -18.859375 C 8.457031 -20.640625 7.582031 -22.671875 7.375 -24.953125 C 7.226562 -26.566406 7.445312 -27.953125 8.03125 -29.109375 C 8.625 -30.265625 9.457031 -31.1875 10.53125 -31.875 C 11.613281 -32.5625 12.800781 -32.960938 14.09375 -33.078125 C 15.820312 -33.234375 17.128906 -32.894531 18.015625 -32.0625 C 18.910156 -31.238281 19.40625 -30.296875 19.5 -29.234375 C 19.5625 -28.898438 19.507812 -28.617188 19.34375 -28.390625 C 19.1875 -28.160156 18.929688 -28.046875 18.578125 -28.046875 C 18.015625 -28.054688 17.441406 -27.925781 16.859375 -27.65625 C 16.273438 -27.382812 15.8125 -26.929688 15.46875 -26.296875 C 15.132812 -25.671875 15.019531 -24.789062 15.125 -23.65625 C 15.332031 -21.300781 16.359375 -19.488281 18.203125 -18.21875 C 18.390625 -18.582031 18.566406 -18.945312 18.734375 -19.3125 C 18.898438 -19.675781 19.066406 -20.050781 19.234375 -20.4375 C 21.179688 -24.832031 23.101562 -28.273438 25 -30.765625 C 26.894531 -33.265625 28.742188 -35.046875 30.546875 -36.109375 C 32.359375 -37.179688 34.109375 -37.796875 35.796875 -37.953125 C 37.410156 -38.097656 38.640625 -37.769531 39.484375 -36.96875 C 40.328125 -36.175781 40.804688 -35.148438 40.921875 -33.890625 C 41.023438 -32.429688 40.789062 -31.144531 40.21875 -30.03125 C 39.65625 -28.925781 38.882812 -28.328125 37.90625 -28.234375 C 37.613281 -28.203125 37.335938 -28.253906 37.078125 -28.390625 C 36.816406 -28.535156 36.519531 -28.578125 36.1875 -28.515625 C 35.726562 -28.472656 35.257812 -28.03125 34.78125 -27.1875 C 34.300781 -26.351562 33.859375 -24.96875 33.453125 -23.03125 C 33.265625 -22.050781 33.085938 -21.015625 32.921875 -19.921875 C 32.765625 -18.835938 32.726562 -17.847656 32.8125 -16.953125 C 32.894531 -16.015625 33.140625 -15.257812 33.546875 -14.6875 C 33.953125 -14.125 34.578125 -13.878906 35.421875 -13.953125 C 36.128906 -14.015625 36.8125 -14.222656 37.46875 -14.578125 C 38.132812 -14.929688 38.644531 -15.46875 39 -16.1875 Z M 26.8125 -16.328125 C 27.21875 -18.515625 27.628906 -20.265625 28.046875 -21.578125 C 28.472656 -22.898438 28.820312 -23.957031 29.09375 -24.75 C 29.363281 -25.539062 29.472656 -26.242188 29.421875 -26.859375 C 29.378906 -27.285156 29.175781 -27.484375 28.8125 -27.453125 C 28.5 -27.421875 28.1875 -27.273438 27.875 -27.015625 C 27.5625 -26.765625 27.101562 -26.207031 26.5 -25.34375 C 25.695312 -24.0625 24.941406 -22.679688 24.234375 -21.203125 C 23.523438 -19.734375 22.820312 -18.210938 22.125 -16.640625 C 22.820312 -16.484375 23.5625 -16.382812 24.34375 -16.34375 C 25.132812 -16.300781 25.957031 -16.296875 26.8125 -16.328125 Z M 26.8125 -16.328125 "/></g></g></g><g fill="#fdf8eb" fill-opacity="1"><g transform="translate(203.010567, 227.539412)"><g><path d="M 28.125 -19.59375 C 27.894531 -19.445312 27.773438 -19.257812 27.765625 -19.03125 C 27.753906 -18.800781 27.816406 -18.628906 27.953125 -18.515625 C 28.640625 -18.078125 29.144531 -17.515625 29.46875 -16.828125 C 29.800781 -16.140625 30.097656 -15.457031 30.359375 -14.78125 C 30.617188 -14.101562 30.960938 -13.546875 31.390625 -13.109375 C 31.828125 -12.679688 32.492188 -12.507812 33.390625 -12.59375 C 34.398438 -12.6875 35.203125 -13.039062 35.796875 -13.65625 C 36.398438 -14.28125 36.96875 -15.078125 37.5 -16.046875 C 37.71875 -16.429688 38.019531 -16.597656 38.40625 -16.546875 C 38.789062 -16.492188 39.117188 -16.316406 39.390625 -16.015625 C 39.660156 -15.710938 39.75 -15.40625 39.65625 -15.09375 C 39.238281 -13.664062 38.695312 -12.242188 38.03125 -10.828125 C 37.375 -9.421875 36.609375 -8.113281 35.734375 -6.90625 C 34.867188 -5.707031 33.882812 -4.726562 32.78125 -3.96875 C 31.6875 -3.207031 30.492188 -2.769531 29.203125 -2.65625 C 27.835938 -2.53125 26.773438 -2.769531 26.015625 -3.375 C 25.265625 -3.976562 24.710938 -4.796875 24.359375 -5.828125 C 24.015625 -6.859375 23.789062 -7.960938 23.6875 -9.140625 C 23.582031 -10.316406 23.507812 -11.429688 23.46875 -12.484375 C 23.4375 -13.546875 23.335938 -14.40625 23.171875 -15.0625 C 23.003906 -15.71875 22.691406 -16.023438 22.234375 -15.984375 C 21.929688 -15.960938 21.671875 -15.84375 21.453125 -15.625 C 21.242188 -15.414062 21.035156 -14.898438 20.828125 -14.078125 C 19.597656 -8.953125 17.90625 -5.191406 15.75 -2.796875 C 13.601562 -0.398438 10.835938 0.953125 7.453125 1.265625 C 5.347656 1.453125 3.550781 1.234375 2.0625 0.609375 C 0.570312 -0.00390625 -0.582031 -0.921875 -1.40625 -2.140625 C -2.238281 -3.359375 -2.726562 -4.742188 -2.875 -6.296875 C -2.976562 -7.515625 -2.84375 -8.6875 -2.46875 -9.8125 C -2.101562 -10.9375 -1.53125 -11.890625 -0.75 -12.671875 C 0.03125 -13.453125 0.984375 -13.890625 2.109375 -13.984375 C 2.566406 -14.023438 2.8125 -13.863281 2.84375 -13.5 C 2.945312 -12.375 3.507812 -11.492188 4.53125 -10.859375 C 5.550781 -10.234375 6.769531 -9.984375 8.1875 -10.109375 C 9.1875 -10.203125 10.21875 -10.5625 11.28125 -11.1875 C 12.34375 -11.820312 13.34375 -12.769531 14.28125 -14.03125 C 15.21875 -15.289062 15.953125 -16.867188 16.484375 -18.765625 C 16.953125 -20.367188 17.453125 -22.035156 17.984375 -23.765625 C 18.515625 -25.492188 19.019531 -27.144531 19.5 -28.71875 C 17.75 -29.019531 16.285156 -28.851562 15.109375 -28.21875 C 13.941406 -27.59375 13.085938 -26.75 12.546875 -25.6875 C 12.003906 -24.625 11.785156 -23.539062 11.890625 -22.4375 C 11.953125 -21.769531 12.171875 -21.226562 12.546875 -20.8125 C 12.929688 -20.40625 13.367188 -20.222656 13.859375 -20.265625 C 14.117188 -19.796875 14.1875 -19.210938 14.0625 -18.515625 C 13.945312 -17.816406 13.648438 -17.128906 13.171875 -16.453125 C 12.691406 -15.773438 12.050781 -15.1875 11.25 -14.6875 C 10.445312 -14.1875 9.492188 -13.890625 8.390625 -13.796875 C 7.140625 -13.679688 6.0625 -13.863281 5.15625 -14.34375 C 4.257812 -14.820312 3.554688 -15.488281 3.046875 -16.34375 C 2.535156 -17.207031 2.234375 -18.160156 2.140625 -19.203125 C 1.941406 -21.273438 2.15625 -23.253906 2.78125 -25.140625 C 3.414062 -27.035156 4.394531 -28.757812 5.71875 -30.3125 C 7.039062 -31.863281 8.679688 -33.128906 10.640625 -34.109375 C 12.597656 -35.085938 14.8125 -35.6875 17.28125 -35.90625 C 19.570312 -36.113281 21.3125 -35.941406 22.5 -35.390625 C 23.695312 -34.835938 24.421875 -33.972656 24.671875 -32.796875 C 24.929688 -31.617188 24.832031 -30.175781 24.375 -28.46875 C 24.238281 -27.875 24.0625 -27.144531 23.84375 -26.28125 C 23.632812 -25.414062 23.40625 -24.492188 23.15625 -23.515625 C 23.15625 -23.484375 23.144531 -23.457031 23.125 -23.4375 C 23.113281 -23.414062 23.113281 -23.390625 23.125 -23.359375 C 22.976562 -22.710938 23 -22.242188 23.1875 -21.953125 C 23.375 -21.660156 23.617188 -21.53125 23.921875 -21.5625 C 24.703125 -21.601562 25.425781 -22.300781 26.09375 -23.65625 C 26.769531 -25.007812 27.457031 -26.773438 28.15625 -28.953125 C 28.625 -30.316406 29.128906 -31.625 29.671875 -32.875 C 30.222656 -34.132812 30.929688 -35.191406 31.796875 -36.046875 C 32.671875 -36.910156 33.828125 -37.410156 35.265625 -37.546875 C 36.421875 -37.648438 37.367188 -37.488281 38.109375 -37.0625 C 38.847656 -36.632812 39.398438 -36.050781 39.765625 -35.3125 C 40.140625 -34.582031 40.363281 -33.800781 40.4375 -32.96875 C 40.539062 -31.90625 40.425781 -30.882812 40.09375 -29.90625 C 39.769531 -28.925781 39.3125 -28.113281 38.71875 -27.46875 C 38.132812 -26.832031 37.492188 -26.484375 36.796875 -26.421875 C 36.242188 -26.367188 35.828125 -26.457031 35.546875 -26.6875 C 35.265625 -26.925781 34.832031 -27.019531 34.25 -26.96875 C 33.519531 -26.90625 32.894531 -26.570312 32.375 -25.96875 C 31.851562 -25.363281 31.394531 -24.648438 31 -23.828125 C 30.601562 -23.015625 30.175781 -22.207031 29.71875 -21.40625 C 29.269531 -20.613281 28.738281 -20.007812 28.125 -19.59375 Z M 28.125 -19.59375 "/></g></g></g><g fill="#fdf8eb" fill-opacity="1"><g transform="translate(240.592225, 224.131141)"><g><path d="M 39 -16.1875 C 39.21875 -16.570312 39.53125 -16.726562 39.9375 -16.65625 C 40.34375 -16.59375 40.6875 -16.421875 40.96875 -16.140625 C 41.257812 -15.859375 41.332031 -15.554688 41.1875 -15.234375 C 40.914062 -14.703125 40.609375 -13.953125 40.265625 -12.984375 C 39.921875 -12.023438 39.5 -10.992188 39 -9.890625 C 38.507812 -8.785156 37.90625 -7.71875 37.1875 -6.6875 C 36.476562 -5.65625 35.65625 -4.785156 34.71875 -4.078125 C 33.789062 -3.367188 32.703125 -2.960938 31.453125 -2.859375 C 30.378906 -2.753906 29.488281 -2.976562 28.78125 -3.53125 C 28.070312 -4.09375 27.523438 -4.878906 27.140625 -5.890625 C 26.753906 -6.898438 26.503906 -8.023438 26.390625 -9.265625 C 26.335938 -9.847656 26.3125 -10.460938 26.3125 -11.109375 C 26.320312 -11.753906 26.351562 -12.429688 26.40625 -13.140625 C 25.425781 -13.109375 24.460938 -13.113281 23.515625 -13.15625 C 22.578125 -13.195312 21.65625 -13.285156 20.75 -13.421875 C 20.519531 -12.898438 20.289062 -12.375 20.0625 -11.84375 C 19.84375 -11.320312 19.613281 -10.804688 19.375 -10.296875 C 18.488281 -8.398438 17.441406 -6.597656 16.234375 -4.890625 C 15.023438 -3.179688 13.691406 -1.765625 12.234375 -0.640625 C 10.773438 0.472656 9.226562 1.101562 7.59375 1.25 C 5.519531 1.4375 3.796875 1.210938 2.421875 0.578125 C 1.054688 -0.046875 0.0234375 -0.925781 -0.671875 -2.0625 C -1.378906 -3.195312 -1.789062 -4.390625 -1.90625 -5.640625 C -2.007812 -6.890625 -1.859375 -8.109375 -1.453125 -9.296875 C -1.054688 -10.492188 -0.4375 -11.492188 0.40625 -12.296875 C 1.25 -13.097656 2.285156 -13.550781 3.515625 -13.65625 C 3.972656 -13.695312 4.21875 -13.535156 4.25 -13.171875 C 4.34375 -12.160156 4.851562 -11.382812 5.78125 -10.84375 C 6.707031 -10.300781 7.789062 -10.082031 9.03125 -10.1875 C 10.476562 -10.320312 11.769531 -10.796875 12.90625 -11.609375 C 14.050781 -12.421875 15.085938 -13.46875 16.015625 -14.75 C 13.554688 -15.71875 11.550781 -17.085938 10 -18.859375 C 8.457031 -20.640625 7.582031 -22.671875 7.375 -24.953125 C 7.226562 -26.566406 7.445312 -27.953125 8.03125 -29.109375 C 8.625 -30.265625 9.457031 -31.1875 10.53125 -31.875 C 11.613281 -32.5625 12.800781 -32.960938 14.09375 -33.078125 C 15.820312 -33.234375 17.128906 -32.894531 18.015625 -32.0625 C 18.910156 -31.238281 19.40625 -30.296875 19.5 -29.234375 C 19.5625 -28.898438 19.507812 -28.617188 19.34375 -28.390625 C 19.1875 -28.160156 18.929688 -28.046875 18.578125 -28.046875 C 18.015625 -28.054688 17.441406 -27.925781 16.859375 -27.65625 C 16.273438 -27.382812 15.8125 -26.929688 15.46875 -26.296875 C 15.132812 -25.671875 15.019531 -24.789062 15.125 -23.65625 C 15.332031 -21.300781 16.359375 -19.488281 18.203125 -18.21875 C 18.390625 -18.582031 18.566406 -18.945312 18.734375 -19.3125 C 18.898438 -19.675781 19.066406 -20.050781 19.234375 -20.4375 C 21.179688 -24.832031 23.101562 -28.273438 25 -30.765625 C 26.894531 -33.265625 28.742188 -35.046875 30.546875 -36.109375 C 32.359375 -37.179688 34.109375 -37.796875 35.796875 -37.953125 C 37.410156 -38.097656 38.640625 -37.769531 39.484375 -36.96875 C 40.328125 -36.175781 40.804688 -35.148438 40.921875 -33.890625 C 41.023438 -32.429688 40.789062 -31.144531 40.21875 -30.03125 C 39.65625 -28.925781 38.882812 -28.328125 37.90625 -28.234375 C 37.613281 -28.203125 37.335938 -28.253906 37.078125 -28.390625 C 36.816406 -28.535156 36.519531 -28.578125 36.1875 -28.515625 C 35.726562 -28.472656 35.257812 -28.03125 34.78125 -27.1875 C 34.300781 -26.351562 33.859375 -24.96875 33.453125 -23.03125 C 33.265625 -22.050781 33.085938 -21.015625 32.921875 -19.921875 C 32.765625 -18.835938 32.726562 -17.847656 32.8125 -16.953125 C 32.894531 -16.015625 33.140625 -15.257812 33.546875 -14.6875 C 33.953125 -14.125 34.578125 -13.878906 35.421875 -13.953125 C 36.128906 -14.015625 36.8125 -14.222656 37.46875 -14.578125 C 38.132812 -14.929688 38.644531 -15.46875 39 -16.1875 Z M 26.8125 -16.328125 C 27.21875 -18.515625 27.628906 -20.265625 28.046875 -21.578125 C 28.472656 -22.898438 28.820312 -23.957031 29.09375 -24.75 C 29.363281 -25.539062 29.472656 -26.242188 29.421875 -26.859375 C 29.378906 -27.285156 29.175781 -27.484375 28.8125 -27.453125 C 28.5 -27.421875 28.1875 -27.273438 27.875 -27.015625 C 27.5625 -26.765625 27.101562 -26.207031 26.5 -25.34375 C 25.695312 -24.0625 24.941406 -22.679688 24.234375 -21.203125 C 23.523438 -19.734375 22.820312 -18.210938 22.125 -16.640625 C 22.820312 -16.484375 23.5625 -16.382812 24.34375 -16.34375 C 25.132812 -16.300781 25.957031 -16.296875 26.8125 -16.328125 Z M 26.8125 -16.328125 "/></g></g></g><g fill="#fdf8eb" fill-opacity="1"><g transform="translate(279.684483, 220.585875)"><g><path d="M 6.25 1.375 C 4.394531 1.539062 2.84375 1.300781 1.59375 0.65625 C 0.351562 0.0078125 -0.585938 -0.878906 -1.234375 -2.015625 C -1.878906 -3.148438 -2.257812 -4.34375 -2.375 -5.59375 C -2.476562 -6.84375 -2.328125 -8.0625 -1.921875 -9.25 C -1.523438 -10.445312 -0.898438 -11.445312 -0.046875 -12.25 C 0.796875 -13.050781 1.832031 -13.507812 3.0625 -13.625 C 3.519531 -13.664062 3.765625 -13.503906 3.796875 -13.140625 C 3.890625 -12.128906 4.394531 -11.347656 5.3125 -10.796875 C 6.238281 -10.253906 7.332031 -10.039062 8.59375 -10.15625 C 10.019531 -10.28125 11.484375 -11.035156 12.984375 -12.421875 C 14.492188 -13.804688 15.660156 -15.921875 16.484375 -18.765625 C 16.785156 -19.828125 17.09375 -20.929688 17.40625 -22.078125 C 17.71875 -23.234375 18.03125 -24.320312 18.34375 -25.34375 C 18.570312 -26.164062 18.921875 -26.765625 19.390625 -27.140625 C 19.867188 -27.515625 20.441406 -27.734375 21.109375 -27.796875 C 22.078125 -27.890625 22.710938 -27.726562 23.015625 -27.3125 C 23.316406 -26.894531 23.425781 -26.300781 23.34375 -25.53125 C 23.257812 -24.769531 23.054688 -23.828125 22.734375 -22.703125 C 22.410156 -21.585938 22.054688 -20.421875 21.671875 -19.203125 C 21.285156 -17.992188 20.960938 -16.84375 20.703125 -15.75 C 20.441406 -14.664062 20.34375 -13.769531 20.40625 -13.0625 C 20.457031 -12.476562 20.679688 -12 21.078125 -11.625 C 21.472656 -11.257812 22.050781 -11.109375 22.8125 -11.171875 C 23.8125 -11.265625 24.691406 -11.6875 25.453125 -12.4375 C 26.222656 -13.195312 26.867188 -14.171875 27.390625 -15.359375 C 27.910156 -16.546875 28.273438 -17.835938 28.484375 -19.234375 C 28.691406 -20.640625 28.734375 -22.019531 28.609375 -23.375 C 28.492188 -24.675781 28.148438 -25.851562 27.578125 -26.90625 C 27.003906 -27.96875 26.097656 -28.789062 24.859375 -29.375 C 23.628906 -29.957031 21.960938 -30.15625 19.859375 -29.96875 C 18.421875 -29.832031 17.066406 -29.46875 15.796875 -28.875 C 14.523438 -28.28125 13.519531 -27.457031 12.78125 -26.40625 C 12.039062 -25.351562 11.742188 -24.03125 11.890625 -22.4375 C 11.953125 -21.769531 12.171875 -21.226562 12.546875 -20.8125 C 12.929688 -20.40625 13.367188 -20.222656 13.859375 -20.265625 C 14.203125 -20.265625 14.3125 -19.953125 14.1875 -19.328125 C 14.070312 -18.703125 13.765625 -17.972656 13.265625 -17.140625 C 12.773438 -16.304688 12.113281 -15.5625 11.28125 -14.90625 C 10.457031 -14.257812 9.492188 -13.890625 8.390625 -13.796875 C 7.140625 -13.679688 6.0625 -13.894531 5.15625 -14.4375 C 4.25 -14.976562 3.53125 -15.738281 3 -16.71875 C 2.476562 -17.695312 2.164062 -18.769531 2.0625 -19.9375 C 1.882812 -21.882812 2.148438 -23.769531 2.859375 -25.59375 C 3.578125 -27.414062 4.671875 -29.070312 6.140625 -30.5625 C 7.609375 -32.050781 9.394531 -33.273438 11.5 -34.234375 C 13.601562 -35.191406 15.972656 -35.789062 18.609375 -36.03125 C 21.535156 -36.289062 24.035156 -36.125 26.109375 -35.53125 C 28.179688 -34.9375 29.882812 -34.015625 31.21875 -32.765625 C 32.550781 -31.515625 33.5625 -30.035156 34.25 -28.328125 C 34.9375 -26.628906 35.367188 -24.800781 35.546875 -22.84375 C 35.765625 -20.40625 35.617188 -17.96875 35.109375 -15.53125 C 34.597656 -13.101562 33.789062 -10.875 32.6875 -8.84375 C 31.59375 -6.820312 30.273438 -5.164062 28.734375 -3.875 C 27.191406 -2.582031 25.503906 -1.851562 23.671875 -1.6875 C 21.785156 -1.519531 20.238281 -1.957031 19.03125 -3 C 17.820312 -4.039062 17.066406 -5.5 16.765625 -7.375 C 15.710938 -4.875 14.285156 -2.84375 12.484375 -1.28125 C 10.679688 0.269531 8.601562 1.15625 6.25 1.375 Z M 6.25 1.375 "/></g></g></g><g fill="#fdf8eb" fill-opacity="1"><g transform="translate(316.94572, 217.206664)"><g><path d="M 39 -16.1875 C 39.21875 -16.570312 39.53125 -16.726562 39.9375 -16.65625 C 40.34375 -16.59375 40.6875 -16.421875 40.96875 -16.140625 C 41.257812 -15.859375 41.332031 -15.554688 41.1875 -15.234375 C 40.914062 -14.703125 40.609375 -13.953125 40.265625 -12.984375 C 39.921875 -12.023438 39.5 -10.992188 39 -9.890625 C 38.507812 -8.785156 37.90625 -7.71875 37.1875 -6.6875 C 36.476562 -5.65625 35.65625 -4.785156 34.71875 -4.078125 C 33.789062 -3.367188 32.703125 -2.960938 31.453125 -2.859375 C 30.378906 -2.753906 29.488281 -2.976562 28.78125 -3.53125 C 28.070312 -4.09375 27.523438 -4.878906 27.140625 -5.890625 C 26.753906 -6.898438 26.503906 -8.023438 26.390625 -9.265625 C 26.335938 -9.847656 26.3125 -10.460938 26.3125 -11.109375 C 26.320312 -11.753906 26.351562 -12.429688 26.40625 -13.140625 C 25.425781 -13.109375 24.460938 -13.113281 23.515625 -13.15625 C 22.578125 -13.195312 21.65625 -13.285156 20.75 -13.421875 C 20.519531 -12.898438 20.289062 -12.375 20.0625 -11.84375 C 19.84375 -11.320312 19.613281 -10.804688 19.375 -10.296875 C 18.488281 -8.398438 17.441406 -6.597656 16.234375 -4.890625 C 15.023438 -3.179688 13.691406 -1.765625 12.234375 -0.640625 C 10.773438 0.472656 9.226562 1.101562 7.59375 1.25 C 5.519531 1.4375 3.796875 1.210938 2.421875 0.578125 C 1.054688 -0.046875 0.0234375 -0.925781 -0.671875 -2.0625 C -1.378906 -3.195312 -1.789062 -4.390625 -1.90625 -5.640625 C -2.007812 -6.890625 -1.859375 -8.109375 -1.453125 -9.296875 C -1.054688 -10.492188 -0.4375 -11.492188 0.40625 -12.296875 C 1.25 -13.097656 2.285156 -13.550781 3.515625 -13.65625 C 3.972656 -13.695312 4.21875 -13.535156 4.25 -13.171875 C 4.34375 -12.160156 4.851562 -11.382812 5.78125 -10.84375 C 6.707031 -10.300781 7.789062 -10.082031 9.03125 -10.1875 C 10.476562 -10.320312 11.769531 -10.796875 12.90625 -11.609375 C 14.050781 -12.421875 15.085938 -13.46875 16.015625 -14.75 C 13.554688 -15.71875 11.550781 -17.085938 10 -18.859375 C 8.457031 -20.640625 7.582031 -22.671875 7.375 -24.953125 C 7.226562 -26.566406 7.445312 -27.953125 8.03125 -29.109375 C 8.625 -30.265625 9.457031 -31.1875 10.53125 -31.875 C 11.613281 -32.5625 12.800781 -32.960938 14.09375 -33.078125 C 15.820312 -33.234375 17.128906 -32.894531 18.015625 -32.0625 C 18.910156 -31.238281 19.40625 -30.296875 19.5 -29.234375 C 19.5625 -28.898438 19.507812 -28.617188 19.34375 -28.390625 C 19.1875 -28.160156 18.929688 -28.046875 18.578125 -28.046875 C 18.015625 -28.054688 17.441406 -27.925781 16.859375 -27.65625 C 16.273438 -27.382812 15.8125 -26.929688 15.46875 -26.296875 C 15.132812 -25.671875 15.019531 -24.789062 15.125 -23.65625 C 15.332031 -21.300781 16.359375 -19.488281 18.203125 -18.21875 C 18.390625 -18.582031 18.566406 -18.945312 18.734375 -19.3125 C 18.898438 -19.675781 19.066406 -20.050781 19.234375 -20.4375 C 21.179688 -24.832031 23.101562 -28.273438 25 -30.765625 C 26.894531 -33.265625 28.742188 -35.046875 30.546875 -36.109375 C 32.359375 -37.179688 34.109375 -37.796875 35.796875 -37.953125 C 37.410156 -38.097656 38.640625 -37.769531 39.484375 -36.96875 C 40.328125 -36.175781 40.804688 -35.148438 40.921875 -33.890625 C 41.023438 -32.429688 40.789062 -31.144531 40.21875 -30.03125 C 39.65625 -28.925781 38.882812 -28.328125 37.90625 -28.234375 C 37.613281 -28.203125 37.335938 -28.253906 37.078125 -28.390625 C 36.816406 -28.535156 36.519531 -28.578125 36.1875 -28.515625 C 35.726562 -28.472656 35.257812 -28.03125 34.78125 -27.1875 C 34.300781 -26.351562 33.859375 -24.96875 33.453125 -23.03125 C 33.265625 -22.050781 33.085938 -21.015625 32.921875 -19.921875 C 32.765625 -18.835938 32.726562 -17.847656 32.8125 -16.953125 C 32.894531 -16.015625 33.140625 -15.257812 33.546875 -14.6875 C 33.953125 -14.125 34.578125 -13.878906 35.421875 -13.953125 C 36.128906 -14.015625 36.8125 -14.222656 37.46875 -14.578125 C 38.132812 -14.929688 38.644531 -15.46875 39 -16.1875 Z M 26.8125 -16.328125 C 27.21875 -18.515625 27.628906 -20.265625 28.046875 -21.578125 C 28.472656 -22.898438 28.820312 -23.957031 29.09375 -24.75 C 29.363281 -25.539062 29.472656 -26.242188 29.421875 -26.859375 C 29.378906 -27.285156 29.175781 -27.484375 28.8125 -27.453125 C 28.5 -27.421875 28.1875 -27.273438 27.875 -27.015625 C 27.5625 -26.765625 27.101562 -26.207031 26.5 -25.34375 C 25.695312 -24.0625 24.941406 -22.679688 24.234375 -21.203125 C 23.523438 -19.734375 22.820312 -18.210938 22.125 -16.640625 C 22.820312 -16.484375 23.5625 -16.382812 24.34375 -16.34375 C 25.132812 -16.300781 25.957031 -16.296875 26.8125 -16.328125 Z M 26.8125 -16.328125 "/></g></g></g><path stroke-linecap="butt" transform="matrix(0.823807, -0.0747109, 0.0747109, 0.823807, 53.697572, 132.831495)" fill="none" stroke-linejoin="miter" d="M 122.316435 50.326355 C 122.708356 49.717027 123.153807 49.510856 123.648938 49.69801 C 124.148772 49.885591 124.614013 50.245478 125.045514 50.768265 C 125.491123 51.292331 125.826005 51.834805 126.055713 52.386708 C 125.505664 53.275682 124.83428 54.561438 124.05567 56.245257 C 123.287745 57.915819 122.366361 59.709974 121.287241 61.622591 C 120.2094 63.5211 118.948983 65.341408 117.506416 67.078814 C 116.077959 68.817499 114.469865 70.236424 112.67658 71.344568 C 110.88372 72.448009 108.85645 72.99912 106.594767 72.997902 C 103.560094 72.997707 101.257564 71.930643 99.683326 69.786877 C 98.105664 67.628575 97.316212 64.674023 97.315821 60.913816 C 97.317443 58.543111 97.608093 56.227069 98.188198 53.960985 C 98.767877 51.699604 99.439506 49.574588 100.206936 47.59577 C 100.989754 45.604122 101.669163 43.86389 102.249438 42.380203 C 102.825864 40.886683 103.116337 39.722859 103.116582 38.883599 C 103.117174 37.674518 102.593734 37.067527 101.541133 37.066901 C 100.825005 37.068339 100.115366 37.41651 99.397253 38.119541 C 98.685549 38.804186 97.909407 40.042508 97.073531 41.834934 C 96.251763 43.62864 95.315149 46.165861 94.267539 49.45643 C 93.216932 52.727761 92.028874 56.991867 90.708066 62.249176 C 89.992563 65.119402 88.957464 66.964886 87.598068 67.785202 C 86.248078 68.606371 84.883035 69.018388 83.493534 69.020401 C 80.904783 69.017971 79.171017 68.580976 78.278552 67.703432 C 77.405752 66.818189 76.964248 65.516855 76.967724 63.805415 C 76.964824 62.26884 77.212857 60.579579 77.712249 58.732929 C 78.21292 56.87217 78.764022 54.925891 79.370684 52.889818 C 79.9782 50.844338 80.525003 48.788611 81.005963 46.726913 C 81.507016 44.652811 81.757124 42.679236 81.756289 40.806187 C 81.754658 39.203343 81.562033 38.137958 81.168583 37.61388 C 80.794372 37.086806 80.32958 36.826536 79.775061 36.823663 C 78.561277 36.822645 77.78931 37.596659 77.449327 39.149555 C 75.634228 48.079533 73.106904 55.294806 69.872483 60.791098 C 66.653025 66.279263 62.958243 70.263877 58.796691 72.755198 C 54.635993 75.237113 50.199261 76.475377 45.500178 76.475972 C 42.304323 76.475384 39.644027 75.797886 37.51544 74.433644 C 35.385147 73.088214 33.8033 71.342061 32.764769 69.199461 C 31.717684 67.046601 31.18791 64.836339 31.189555 62.569954 C 31.190773 60.308271 31.647769 58.144824 32.56482 56.08474 C 33.469041 54.009269 34.745734 52.323204 36.403877 51.032103 C 38.0633 49.726892 39.995635 49.072337 42.205157 49.073566 C 43.025605 49.072105 43.436542 49.403358 43.438396 50.062623 C 43.438366 51.892919 44.238187 53.37374 45.842133 54.510218 C 47.446506 55.641992 49.434259 56.206339 51.80539 56.203258 C 54.123936 56.204891 56.299559 55.638784 58.331835 54.509638 C 60.378646 53.377069 62.233844 51.899945 63.892301 50.082543 C 65.547334 48.250605 66.981717 46.237439 68.195878 44.038341 C 69.406188 41.82941 70.332184 39.618404 70.964034 37.409171 C 71.595884 35.199939 71.913541 33.213523 71.912302 31.449497 C 71.913531 29.239974 71.402683 27.553016 70.378902 26.398028 C 69.355549 25.238337 67.957369 24.656332 66.193343 24.657571 C 64.211272 24.658002 62.446978 25.394181 60.900888 26.861404 C 59.36078 28.314945 58.593788 30.34122 58.594782 32.944506 C 58.593383 34.371632 58.99083 35.583619 59.787125 36.580467 C 60.584699 37.563206 61.587814 38.057223 62.796895 38.057815 C 63.299066 39.160757 63.215133 40.504531 62.555355 42.080583 C 61.895578 43.656636 60.750928 45.036982 59.121406 46.22162 C 57.491885 47.406258 55.436834 48.002267 52.957106 48.000241 C 49.694982 47.998386 46.985836 46.813837 44.830095 44.441891 C 42.688463 42.071225 41.619792 38.953842 41.619806 35.084612 C 41.619978 31.94562 42.251657 28.953991 43.519121 26.114855 C 44.787011 23.271016 46.618894 20.743861 49.01477 18.53339 C 51.429458 16.324625 54.308983 14.584769 57.667028 13.319805 C 61.034479 12.055694 64.7907 11.419554 68.944243 11.421643 C 76.165807 11.42221 81.746919 13.45993 85.696132 17.545062 C 89.645771 21.625492 91.973635 27.118863 92.689981 34.016624 C 94.06475 31.144545 95.702046 28.357916 97.59802 25.646905 C 99.512806 22.9376 101.590122 20.527538 103.825691 18.411587 C 106.062114 16.286231 108.364469 14.584124 110.736181 13.319803 C 113.107893 12.055481 115.451097 11.41922 117.769642 11.420854 C 120.974904 11.422294 123.239765 12.277307 124.559522 13.985466 C 125.878853 15.698329 126.543252 17.678973 126.543314 19.926546 C 126.539827 21.585827 126.235347 23.21781 125.630299 24.817793 C 125.024825 26.422479 124.249986 27.751012 123.306207 28.798688 C 122.376111 29.852347 121.413407 30.37672 120.417669 30.376509 C 119.810563 30.378351 119.283376 30.230965 118.840808 29.934776 C 118.409353 29.620629 117.915939 29.466822 117.365697 29.46908 C 116.53114 29.469261 115.755693 29.967941 115.039354 30.965118 C 114.328998 31.948612 113.696091 33.228375 113.140633 34.804405 C 112.591157 36.366753 112.11738 38.035541 111.728279 39.816326 C 111.35029 41.579152 111.045821 43.263295 110.819575 44.869182 C 110.599738 46.456682 110.496555 47.751293 110.496344 48.747032 C 110.492868 50.458472 110.864276 51.853024 111.605863 52.930261 C 112.34745 54.007499 113.659258 54.548478 115.546416 54.548922 C 118.187753 54.546638 120.444426 53.139115 122.316435 50.326355 Z M 193.001057 50.325941 C 193.445126 49.664441 194.0261 49.427885 194.739276 49.615848 C 195.452453 49.80381 196.044675 50.175212 196.515944 50.730056 C 196.992342 51.280622 197.065572 51.832559 196.740335 52.386293 C 196.190285 53.275267 195.523604 54.56145 194.740291 56.244842 C 193.972367 57.915405 193.050983 59.709559 191.971862 61.622177 C 190.894022 63.520685 189.633605 65.340994 188.191038 67.078399 C 186.76258 68.817084 185.154487 70.236009 183.361201 71.344153 C 181.568342 72.447594 179.541071 72.998706 177.278962 73.00219 C 175.35418 72.998334 173.787129 72.448432 172.588069 71.343932 C 171.403545 70.236008 170.547288 68.750068 170.024855 66.877133 C 169.511829 65.00505 169.253999 62.933252 169.255217 60.671569 C 169.255843 59.618968 169.308618 58.514195 169.418244 57.357678 C 169.523167 56.200734 169.685368 54.987342 169.899717 53.72178 C 168.137374 53.599887 166.412644 53.429247 164.729803 53.214988 C 163.042259 53.000303 161.405573 52.695396 159.819318 52.304971 C 159.316725 53.193506 158.822259 54.097004 158.32181 55.014184 C 157.822641 55.917256 157.324751 56.806218 156.828141 57.681071 C 154.953663 60.939327 152.783714 64.004828 150.318293 66.877572 C 147.867408 69.746893 145.243677 72.064726 142.456932 73.827221 C 139.679168 75.595273 136.806296 76.477483 133.828486 76.477704 C 130.068279 76.478094 127.015073 75.793413 124.672718 74.433493 C 122.329083 73.087682 120.614271 71.343696 119.537689 69.202386 C 118.462387 67.046968 117.923207 64.835853 117.919722 62.573744 C 117.921366 60.307358 118.378363 58.143911 119.295413 56.083827 C 120.199635 54.008356 121.480604 52.327421 123.134471 51.03119 C 124.793894 49.725979 126.726228 49.071424 128.935751 49.072653 C 129.756198 49.071192 130.167136 49.402445 130.168989 50.06171 C 130.16896 51.892006 130.958948 53.376677 132.535103 54.505893 C 134.110831 55.639811 136.031888 56.207593 138.293997 56.204108 C 140.878044 56.206111 143.263575 55.573689 145.445887 54.306416 C 147.629478 53.025033 149.658205 51.307595 151.532068 49.1541 C 147.288276 47.010059 143.917807 44.229223 141.425792 40.807314 C 138.948312 37.381982 137.707199 33.604088 137.707582 29.469357 C 137.708653 26.529597 138.325057 24.072396 139.567055 22.089199 C 140.808626 20.110705 142.444488 18.594723 144.479345 17.541679 C 146.527885 16.494617 148.714206 15.967413 151.047287 15.965623 C 154.186279 15.965795 156.483197 16.78104 157.93804 18.411358 C 159.406992 20.042955 160.141891 21.821358 160.142737 23.746567 C 160.196739 24.353661 160.051912 24.852631 159.717662 25.244329 C 159.394097 25.622772 158.928969 25.784483 158.322279 25.729462 C 157.270082 25.619813 156.204685 25.760278 155.130791 26.151283 C 154.048345 26.532028 153.152808 27.256902 152.438625 28.334883 C 151.724441 29.412865 151.36907 30.978591 151.368233 33.026931 C 151.367446 37.270685 152.911179 40.691945 155.999432 43.290711 C 156.387503 42.67155 156.757188 42.04598 157.108488 41.414 C 157.474323 40.778597 157.850844 40.129939 158.242327 39.473153 C 162.431849 31.915487 166.425072 26.051774 170.226271 21.887143 C 174.03773 17.713959 177.657502 14.817876 181.07618 13.198042 C 184.500414 11.569228 187.732433 10.75278 190.776512 10.753828 C 193.702162 10.753619 195.849863 11.541106 197.224316 13.116716 C 198.599623 14.682921 199.289232 16.594726 199.288014 18.856408 C 199.232156 21.511438 198.613147 23.788219 197.426284 25.686324 C 196.243697 27.589558 194.768466 28.536878 192.999737 28.53769 C 192.449494 28.539948 191.950951 28.390418 191.508383 28.094229 C 191.076502 27.784785 190.557014 27.657064 189.94992 27.711066 C 189.115363 27.711247 188.196738 28.429285 187.203023 29.870736 C 186.219994 31.298931 185.198703 33.724155 184.148556 37.147262 C 183.652128 38.856672 183.168551 40.685789 182.693977 42.624783 C 182.225386 44.550093 181.989341 46.316309 181.986269 47.918726 C 181.987497 49.630593 182.302041 51.02473 182.939309 52.10199 C 183.585983 53.180103 184.675042 53.719848 186.211191 53.721651 C 187.49167 53.719235 188.752854 53.459017 189.990893 52.931164 C 191.228505 52.408015 192.232177 51.536471 193.001057 50.325941 Z M 171.155882 48.079272 C 172.26023 44.215361 173.288647 41.136427 174.245836 38.842899 C 175.216707 36.555353 176.004262 34.720611 176.612352 33.348506 C 177.216165 31.971271 177.522869 30.733051 177.523484 29.62829 C 177.523314 28.845893 177.188893 28.455195 176.529628 28.457048 C 175.979386 28.459306 175.40097 28.667643 174.794383 29.082061 C 174.187368 29.501181 173.278621 30.424008 172.063437 31.850116 C 170.407193 34.009121 168.818968 36.359222 167.293635 38.904695 C 165.78369 41.437338 164.284454 44.061044 162.787372 46.765555 C 163.999956 47.145801 165.306151 47.434961 166.710234 47.638164 C 168.125429 47.823408 169.605602 47.97187 171.155882 48.079272 Z M 205.824684 73.988298 C 203.112376 73.988888 200.892861 73.261272 199.151606 71.808873 C 197.41676 70.338088 196.547583 68.419481 196.544502 66.04835 C 196.547966 64.28475 197.033305 62.697619 197.999666 61.296363 C 198.97201 59.881424 200.222247 58.434787 201.760211 56.952602 C 203.30886 55.457161 204.996399 53.685071 206.812995 51.640184 C 209.077118 49.104812 211.010313 46.506235 212.613431 43.83505 C 214.217402 41.154458 215.703326 38.259267 217.081035 35.145627 C 218.469003 32.023434 219.929143 28.523708 221.465304 24.656282 C 219.040182 24.104429 216.790454 24.023686 214.716119 24.414053 C 212.652469 24.791164 210.983526 25.573924 209.704588 26.761906 C 208.435482 27.946038 207.803058 29.481896 207.802613 31.369054 C 207.802021 32.578135 208.10836 33.592191 208.713076 34.400964 C 209.333608 35.192204 210.079751 35.591791 210.957061 35.590745 C 211.347167 36.465405 211.374332 37.525269 211.038984 38.765633 C 210.713468 40.002147 210.06515 41.190419 209.094882 42.321044 C 208.124614 43.451668 206.880684 44.410482 205.358814 45.192355 C 203.847631 45.960971 202.096513 46.342717 200.105036 46.342295 C 197.852759 46.34193 195.954376 45.837847 194.405182 44.829619 C 192.852991 43.802153 191.697919 42.47404 190.925856 40.844001 C 190.143961 39.217812 189.757512 37.466268 189.756677 35.59322 C 189.754444 31.225908 190.967354 27.210623 193.395407 23.547367 C 195.834572 19.866152 199.301277 16.932479 203.801503 14.732666 C 208.302582 12.523447 213.608958 11.420952 219.725761 11.420903 C 223.756172 11.421309 226.667401 11.946121 228.459446 12.99534 C 230.247641 14.034726 231.253114 15.548424 231.470311 17.545412 C 231.69862 19.524441 231.457582 21.92085 230.742067 24.738917 C 230.133363 27.215783 229.401179 30.060788 228.536538 33.268375 C 227.687712 36.45843 226.76623 39.769921 225.76867 43.188313 C 224.770683 46.611409 223.788489 49.912653 222.817384 53.091618 C 221.861668 56.257753 220.974274 59.036523 220.151351 61.418095 C 218.818318 65.503094 216.909179 68.620698 214.432914 70.776461 C 211.953225 72.917689 209.082105 73.989727 205.824684 73.988298 Z M 205.824684 73.988298 " stroke="#5d5048" stroke-width="6.208793" stroke-opacity="1" stroke-miterlimit="4"/><g fill="#fdf8eb" fill-opacity="1"><g transform="translate(87.843124, 190.367382)"><g><path d="M 70.390625 -25.21875 C 70.648438 -25.75 70.992188 -25.953125 71.421875 -25.828125 C 71.847656 -25.703125 72.257812 -25.441406 72.65625 -25.046875 C 73.050781 -24.648438 73.363281 -24.234375 73.59375 -23.796875 C 73.207031 -23.023438 72.757812 -21.914062 72.25 -20.46875 C 71.738281 -19.03125 71.113281 -17.484375 70.375 -15.828125 C 69.632812 -14.179688 68.738281 -12.585938 67.6875 -11.046875 C 66.632812 -9.503906 65.410156 -8.210938 64.015625 -7.171875 C 62.617188 -6.128906 60.984375 -5.523438 59.109375 -5.359375 C 56.609375 -5.128906 54.628906 -5.84375 53.171875 -7.5 C 51.710938 -9.164062 50.84375 -11.539062 50.5625 -14.625 C 50.382812 -16.582031 50.453125 -18.515625 50.765625 -20.421875 C 51.078125 -22.328125 51.476562 -24.125 51.96875 -25.8125 C 52.457031 -27.507812 52.882812 -28.992188 53.25 -30.265625 C 53.613281 -31.535156 53.765625 -32.507812 53.703125 -33.1875 C 53.609375 -34.1875 53.132812 -34.648438 52.28125 -34.578125 C 51.6875 -34.523438 51.117188 -34.1875 50.578125 -33.5625 C 50.035156 -32.945312 49.492188 -31.867188 48.953125 -30.328125 C 48.410156 -28.785156 47.828125 -26.625 47.203125 -23.84375 C 46.578125 -21.0625 45.921875 -17.460938 45.234375 -13.046875 C 44.847656 -10.628906 44.128906 -9.023438 43.078125 -8.234375 C 42.023438 -7.453125 40.929688 -7.007812 39.796875 -6.90625 C 37.660156 -6.707031 36.191406 -6.941406 35.390625 -7.609375 C 34.597656 -8.273438 34.140625 -9.304688 34.015625 -10.703125 C 33.898438 -11.984375 33.976562 -13.40625 34.25 -14.96875 C 34.519531 -16.53125 34.828125 -18.171875 35.171875 -19.890625 C 35.523438 -21.617188 35.828125 -23.351562 36.078125 -25.09375 C 36.335938 -26.84375 36.398438 -28.488281 36.265625 -30.03125 C 36.148438 -31.351562 35.910156 -32.210938 35.546875 -32.609375 C 35.179688 -33.015625 34.769531 -33.195312 34.3125 -33.15625 C 33.320312 -33.0625 32.75 -32.367188 32.59375 -31.078125 C 31.75 -23.578125 30.203125 -17.441406 27.953125 -12.671875 C 25.703125 -7.898438 22.957031 -4.335938 19.71875 -1.984375 C 16.476562 0.359375 12.925781 1.707031 9.0625 2.0625 C 6.425781 2.300781 4.179688 1.941406 2.328125 0.984375 C 0.472656 0.0234375 -0.960938 -1.296875 -1.984375 -2.984375 C -3.015625 -4.671875 -3.613281 -6.453125 -3.78125 -8.328125 C -3.945312 -10.191406 -3.734375 -12.007812 -3.140625 -13.78125 C -2.546875 -15.550781 -1.613281 -17.03125 -0.34375 -18.21875 C 0.925781 -19.40625 2.46875 -20.082031 4.28125 -20.25 C 4.96875 -20.3125 5.332031 -20.070312 5.375 -19.53125 C 5.507812 -18.03125 6.28125 -16.875 7.6875 -16.0625 C 9.09375 -15.25 10.769531 -14.929688 12.71875 -15.109375 C 14.632812 -15.285156 16.390625 -15.914062 17.984375 -17 C 19.578125 -18.082031 20.988281 -19.429688 22.21875 -21.046875 C 23.445312 -22.671875 24.476562 -24.4375 25.3125 -26.34375 C 26.144531 -28.257812 26.738281 -30.148438 27.09375 -32.015625 C 27.457031 -33.890625 27.570312 -35.550781 27.4375 -37 C 27.269531 -38.8125 26.722656 -40.160156 25.796875 -41.046875 C 24.878906 -41.929688 23.691406 -42.304688 22.234375 -42.171875 C 20.597656 -42.023438 19.195312 -41.289062 18.03125 -39.96875 C 16.875 -38.644531 16.390625 -36.914062 16.578125 -34.78125 C 16.691406 -33.601562 17.113281 -32.628906 17.84375 -31.859375 C 18.570312 -31.097656 19.4375 -30.765625 20.4375 -30.859375 C 20.9375 -29.992188 20.96875 -28.890625 20.53125 -27.546875 C 20.09375 -26.203125 19.25 -24.976562 18 -23.875 C 16.757812 -22.769531 15.117188 -22.128906 13.078125 -21.953125 C 10.390625 -21.703125 8.066406 -22.472656 6.109375 -24.265625 C 4.160156 -26.054688 3.046875 -28.546875 2.765625 -31.734375 C 2.523438 -34.328125 2.820312 -36.84375 3.65625 -39.28125 C 4.488281 -41.71875 5.8125 -43.929688 7.625 -45.921875 C 9.4375 -47.921875 11.679688 -49.566406 14.359375 -50.859375 C 17.046875 -52.160156 20.09375 -52.96875 23.5 -53.28125 C 29.445312 -53.820312 34.195312 -52.554688 37.75 -49.484375 C 41.3125 -46.410156 43.644531 -42.066406 44.75 -36.453125 C 45.675781 -38.921875 46.820312 -41.335938 48.1875 -43.703125 C 49.550781 -46.066406 51.070312 -48.207031 52.75 -50.125 C 54.4375 -52.039062 56.210938 -53.609375 58.078125 -54.828125 C 59.941406 -56.054688 61.828125 -56.757812 63.734375 -56.9375 C 66.367188 -57.175781 68.289062 -56.640625 69.5 -55.328125 C 70.71875 -54.015625 71.410156 -52.425781 71.578125 -50.5625 C 71.703125 -49.1875 71.578125 -47.816406 71.203125 -46.453125 C 70.828125 -45.097656 70.289062 -43.953125 69.59375 -43.015625 C 68.894531 -42.085938 68.132812 -41.585938 67.3125 -41.515625 C 66.820312 -41.472656 66.382812 -41.5625 66 -41.78125 C 65.613281 -42 65.191406 -42.085938 64.734375 -42.046875 C 64.046875 -41.984375 63.441406 -41.507812 62.921875 -40.625 C 62.410156 -39.75 61.988281 -38.640625 61.65625 -37.296875 C 61.320312 -35.960938 61.054688 -34.554688 60.859375 -33.078125 C 60.671875 -31.597656 60.546875 -30.191406 60.484375 -28.859375 C 60.429688 -27.523438 60.441406 -26.453125 60.515625 -25.640625 C 60.640625 -24.222656 61.046875 -23.097656 61.734375 -22.265625 C 62.429688 -21.429688 63.554688 -21.085938 65.109375 -21.234375 C 67.296875 -21.429688 69.054688 -22.757812 70.390625 -25.21875 Z M 70.390625 -25.21875 "/></g></g></g><g fill="#fdf8eb" fill-opacity="1"><g transform="translate(158.344219, 183.973656)"><g><path d="M 58.109375 -24.109375 C 58.421875 -24.679688 58.878906 -24.914062 59.484375 -24.8125 C 60.097656 -24.71875 60.613281 -24.457031 61.03125 -24.03125 C 61.445312 -23.601562 61.539062 -23.15625 61.3125 -22.6875 C 60.9375 -21.914062 60.492188 -20.804688 59.984375 -19.359375 C 59.472656 -17.921875 58.84375 -16.375 58.09375 -14.71875 C 57.351562 -13.0625 56.457031 -11.460938 55.40625 -9.921875 C 54.351562 -8.390625 53.128906 -7.101562 51.734375 -6.0625 C 50.335938 -5.019531 48.707031 -4.414062 46.84375 -4.25 C 45.25 -4.101562 43.921875 -4.4375 42.859375 -5.25 C 41.804688 -6.070312 40.988281 -7.234375 40.40625 -8.734375 C 39.832031 -10.242188 39.460938 -11.929688 39.296875 -13.796875 C 39.222656 -14.660156 39.1875 -15.570312 39.1875 -16.53125 C 39.195312 -17.5 39.242188 -18.519531 39.328125 -19.59375 C 37.867188 -19.550781 36.4375 -19.554688 35.03125 -19.609375 C 33.632812 -19.671875 32.257812 -19.800781 30.90625 -20 C 30.5625 -19.226562 30.21875 -18.445312 29.875 -17.65625 C 29.539062 -16.875 29.203125 -16.101562 28.859375 -15.34375 C 27.554688 -12.519531 26 -9.832031 24.1875 -7.28125 C 22.375 -4.726562 20.390625 -2.625 18.234375 -0.96875 C 16.078125 0.6875 13.769531 1.628906 11.3125 1.859375 C 8.21875 2.140625 5.648438 1.804688 3.609375 0.859375 C 1.578125 -0.078125 0.0390625 -1.382812 -1 -3.0625 C -2.039062 -4.75 -2.644531 -6.53125 -2.8125 -8.40625 C -2.976562 -10.269531 -2.765625 -12.085938 -2.171875 -13.859375 C -1.585938 -15.628906 -0.660156 -17.109375 0.609375 -18.296875 C 1.878906 -19.492188 3.421875 -20.175781 5.234375 -20.34375 C 5.921875 -20.40625 6.285156 -20.164062 6.328125 -19.625 C 6.460938 -18.125 7.222656 -16.960938 8.609375 -16.140625 C 9.992188 -15.328125 11.617188 -15.007812 13.484375 -15.1875 C 15.609375 -15.375 17.519531 -16.070312 19.21875 -17.28125 C 20.925781 -18.488281 22.472656 -20.050781 23.859375 -21.96875 C 20.203125 -23.414062 17.222656 -25.457031 14.921875 -28.09375 C 12.617188 -30.726562 11.3125 -33.753906 11 -37.171875 C 10.78125 -39.578125 11.101562 -41.644531 11.96875 -43.375 C 12.84375 -45.101562 14.082031 -46.472656 15.6875 -47.484375 C 17.289062 -48.503906 19.046875 -49.097656 20.953125 -49.265625 C 23.546875 -49.503906 25.503906 -49.007812 26.828125 -47.78125 C 28.160156 -46.550781 28.898438 -45.132812 29.046875 -43.53125 C 29.140625 -43.039062 29.0625 -42.625 28.8125 -42.28125 C 28.570312 -41.945312 28.203125 -41.773438 27.703125 -41.765625 C 26.828125 -41.785156 25.960938 -41.59375 25.109375 -41.1875 C 24.253906 -40.789062 23.566406 -40.125 23.046875 -39.1875 C 22.535156 -38.25 22.359375 -36.9375 22.515625 -35.25 C 22.828125 -31.75 24.351562 -29.046875 27.09375 -27.140625 C 27.375 -27.660156 27.632812 -28.195312 27.875 -28.75 C 28.125 -29.300781 28.390625 -29.867188 28.671875 -30.453125 C 31.546875 -36.984375 34.394531 -42.109375 37.21875 -45.828125 C 40.050781 -49.554688 42.816406 -52.21875 45.515625 -53.8125 C 48.210938 -55.40625 50.8125 -56.3125 53.3125 -56.53125 C 55.71875 -56.75 57.546875 -56.257812 58.796875 -55.0625 C 60.054688 -53.875 60.769531 -52.347656 60.9375 -50.484375 C 61.09375 -48.296875 60.75 -46.375 59.90625 -44.71875 C 59.070312 -43.0625 57.925781 -42.164062 56.46875 -42.03125 C 56.007812 -41.988281 55.585938 -42.078125 55.203125 -42.296875 C 54.828125 -42.515625 54.394531 -42.578125 53.90625 -42.484375 C 53.21875 -42.421875 52.515625 -41.757812 51.796875 -40.5 C 51.085938 -39.25 50.429688 -37.175781 49.828125 -34.28125 C 49.546875 -32.84375 49.285156 -31.304688 49.046875 -29.671875 C 48.804688 -28.046875 48.742188 -26.578125 48.859375 -25.265625 C 48.984375 -23.847656 49.347656 -22.722656 49.953125 -21.890625 C 50.554688 -21.054688 51.5 -20.695312 52.78125 -20.8125 C 53.8125 -20.90625 54.820312 -21.210938 55.8125 -21.734375 C 56.800781 -22.253906 57.566406 -23.046875 58.109375 -24.109375 Z M 39.9375 -24.328125 C 40.5625 -27.585938 41.179688 -30.191406 41.796875 -32.140625 C 42.421875 -34.097656 42.929688 -35.671875 43.328125 -36.859375 C 43.734375 -38.046875 43.898438 -39.09375 43.828125 -40 C 43.765625 -40.632812 43.457031 -40.925781 42.90625 -40.875 C 42.445312 -40.832031 41.984375 -40.617188 41.515625 -40.234375 C 41.046875 -39.859375 40.363281 -39.03125 39.46875 -37.75 C 38.269531 -35.851562 37.140625 -33.800781 36.078125 -31.59375 C 35.015625 -29.382812 33.976562 -27.113281 32.96875 -24.78125 C 33.976562 -24.539062 35.070312 -24.394531 36.25 -24.34375 C 37.425781 -24.300781 38.65625 -24.296875 39.9375 -24.328125 Z M 39.9375 -24.328125 "/></g></g></g><g fill="#fdf8eb" fill-opacity="1"><g transform="translate(216.572401, 178.692958)"><g><path d="M 12.21875 -0.265625 C 9.988281 -0.0664062 8.101562 -0.503906 6.5625 -1.578125 C 5.019531 -2.660156 4.160156 -4.175781 3.984375 -6.125 C 3.847656 -7.582031 4.125 -8.925781 4.8125 -10.15625 C 5.507812 -11.394531 6.4375 -12.679688 7.59375 -14.015625 C 8.757812 -15.359375 10.019531 -16.941406 11.375 -18.765625 C 13.039062 -21.023438 14.429688 -23.316406 15.546875 -25.640625 C 16.660156 -27.960938 17.671875 -30.457031 18.578125 -33.125 C 19.484375 -35.800781 20.425781 -38.789062 21.40625 -42.09375 C 19.363281 -42.363281 17.503906 -42.265625 15.828125 -41.796875 C 14.160156 -41.328125 12.84375 -40.550781 11.875 -39.46875 C 10.914062 -38.394531 10.507812 -37.085938 10.65625 -35.546875 C 10.75 -34.546875 11.078125 -33.738281 11.640625 -33.125 C 12.203125 -32.519531 12.847656 -32.25 13.578125 -32.3125 C 13.953125 -31.613281 14.050781 -30.738281 13.875 -29.6875 C 13.695312 -28.632812 13.25 -27.609375 12.53125 -26.609375 C 11.8125 -25.609375 10.859375 -24.726562 9.671875 -23.96875 C 8.484375 -23.21875 7.078125 -22.769531 5.453125 -22.625 C 3.585938 -22.457031 1.976562 -22.738281 0.625 -23.46875 C -0.71875 -24.195312 -1.769531 -25.203125 -2.53125 -26.484375 C -3.289062 -27.773438 -3.742188 -29.191406 -3.890625 -30.734375 C -4.210938 -34.316406 -3.507812 -37.710938 -1.78125 -40.921875 C -0.0507812 -44.128906 2.582031 -46.804688 6.125 -48.953125 C 9.664062 -51.109375 13.957031 -52.414062 19 -52.875 C 22.3125 -53.175781 24.742188 -52.960938 26.296875 -52.234375 C 27.859375 -51.503906 28.800781 -50.328125 29.125 -48.703125 C 29.457031 -47.085938 29.429688 -45.097656 29.046875 -42.734375 C 28.742188 -40.628906 28.359375 -38.222656 27.890625 -35.515625 C 27.421875 -32.816406 26.90625 -30.023438 26.34375 -27.140625 C 25.78125 -24.253906 25.21875 -21.46875 24.65625 -18.78125 C 24.101562 -16.09375 23.578125 -13.734375 23.078125 -11.703125 C 22.285156 -8.242188 20.945312 -5.535156 19.0625 -3.578125 C 17.1875 -1.617188 14.90625 -0.515625 12.21875 -0.265625 Z M 12.21875 -0.265625 "/></g></g></g><g clip-path="url(#ec6cc95895)"><path fill="#fdf8eb" d="M 143.203125 205.199219 C 129.925781 207.644531 127.945312 209.625 125.503906 222.898438 C 123.058594 209.625 121.078125 207.644531 107.800781 205.199219 C 121.078125 202.757812 123.058594 200.773438 125.503906 187.5 C 127.945312 200.773438 129.925781 202.757812 143.203125 205.199219 Z M 143.203125 205.199219 " fill-opacity="1" fill-rule="nonzero"/></g><g clip-path="url(#927ceb1b11)"><path fill="#fdf8eb" d="M 193.171875 254.953125 C 183.875 256.664062 182.488281 258.050781 180.777344 267.34375 C 179.066406 258.050781 177.679688 256.664062 168.386719 254.953125 C 177.679688 253.242188 179.066406 251.855469 180.777344 242.5625 C 182.488281 251.855469 183.875 253.242188 193.171875 254.953125 Z M 193.171875 254.953125 " fill-opacity="1" fill-rule="nonzero"/></g><g clip-path="url(#8913c305f1)"><path fill="#fdf8eb" d="M 234.214844 241.285156 C 228.320312 242.371094 227.4375 243.25 226.351562 249.148438 C 225.269531 243.25 224.386719 242.371094 218.492188 241.285156 C 224.386719 240.199219 225.269531 239.320312 226.351562 233.421875 C 227.4375 239.320312 228.320312 240.199219 234.214844 241.285156 Z M 234.214844 241.285156 " fill-opacity="1" fill-rule="nonzero"/></g><g clip-path="url(#1b5c346019)"><path fill="#fdf8eb" d="M 284.035156 176.636719 C 278.136719 177.71875 277.257812 178.601562 276.171875 184.496094 C 275.085938 178.601562 274.207031 177.71875 268.308594 176.636719 C 274.207031 175.550781 275.085938 174.667969 276.171875 168.773438 C 277.257812 174.667969 278.136719 175.550781 284.035156 176.636719 Z M 284.035156 176.636719 " fill-opacity="1" fill-rule="nonzero"/></g><g clip-path="url(#b24c19c93a)"><path fill="#fdf8eb" d="M 175.277344 128.003906 C 169.382812 129.089844 168.503906 129.972656 167.417969 135.867188 C 166.332031 129.972656 165.449219 129.089844 159.554688 128.003906 C 165.449219 126.921875 166.332031 126.039062 167.417969 120.144531 C 168.503906 126.039062 169.382812 126.921875 175.277344 128.003906 Z M 175.277344 128.003906 " fill-opacity="1" fill-rule="nonzero"/></g><g clip-path="url(#905ee76c41)"><path fill="#fdf8eb" d="M 207.40625 109.5 C 199.425781 110.96875 198.234375 112.160156 196.765625 120.140625 C 195.296875 112.160156 194.105469 110.96875 186.128906 109.5 C 194.105469 108.03125 195.296875 106.839844 196.765625 98.859375 C 198.234375 106.839844 199.425781 108.03125 207.40625 109.5 Z M 207.40625 109.5 " fill-opacity="1" fill-rule="nonzero"/></g><g clip-path="url(#83007f7c1f)"><path fill="#fdf8eb" d="M 262.171875 152.316406 C 256.273438 153.402344 255.394531 154.28125 254.308594 160.179688 C 253.222656 154.28125 252.34375 153.402344 246.445312 152.316406 C 252.34375 151.230469 253.222656 150.351562 254.308594 144.453125 C 255.394531 150.351562 256.273438 151.230469 262.171875 152.316406 Z M 262.171875 152.316406 " fill-opacity="1" fill-rule="nonzero"/></g></svg>